<?xml version="1.0" encoding="UTF-8"?><svg id="Layer_1" xmlns="http://www.w3.org/2000/svg" width="818.68" height="228.419" ><defs><style>.cls-1{fill:#e9c5bf;}.cls-1,.cls-2,.cls-3,.cls-4,.cls-5{stroke-width:0px;}.cls-2{fill:#d2c9a1;}.cls-3{fill:#e9a999;}.cls-4{fill:#cc4f51;}.cls-5{fill:#14242f;}</style></defs><path class="cls-1" d="m198.32,119.278c-1.556,0-3.114-.568-4.339-1.715-19.961-18.697-33.939-22.386-42.149-22.186-7.289.176-11,3.469-11.033,3.502-2.47,2.489-6.49,2.505-8.98.035-2.489-2.47-2.505-6.49-.035-8.98,1.009-1.016,25.225-24.402,70.878,18.361,2.559,2.397,2.691,6.415.293,8.975-1.25,1.334-2.941,2.009-4.635,2.009Z"/><path class="cls-5" d="m128.162,14.716l-94.047,61.718c-3.979,2.611-.34,7.4,5.1,6.711l37.951-4.81c4.322-.548,7.984,2.539,6.385,5.383l-2.582,4.593c-1.812,3.222,3.042,6.514,7.566,5.132l31.852-9.733,12.889,5.415,8.523-16.728-10.523-36.693-3.115-20.987Z"/><path class="cls-5" d="m156.904,26.381c-.143-.63-.916-.866-1.387-.425l-46.498,43.583c-2.085,1.973-.275,5.442,2.535,4.862l18.075-3.732c2.889-.597,5.273,2.273,4.158,5.004h0c-1.263,3.094,1.912,6.138,4.95,4.744l14.222-6.523c.247-.113.533-.1.768.037l5.333,3.09c.448.26,1.022.054,1.203-.432h0c2.795-7.512,3.508-15.641,2.061-23.525l-2.711-14.773-2.709-11.91Z"/><path class="cls-2" d="m142.775,68.821l-22.945-8.395c-9.591-3.509-20.211,1.422-23.72,11.013l-14.488,39.599c-6.103,16.681-16.793,31.361-31.022,41.994-9.528,7.12-19.982,11.939-27.637,7.31l-8.337-2.894c-4.108-1.426-7.284,3.726-4.164,6.756l2.866,2.783c2.357,2.289,3.107,5.771,1.899,8.827l-.644,1.629c-1.951,4.937,1.273,10.39,6.539,11.06l11.255,1.431c2.849.362,5.295,2.2,6.437,4.834l4.653,10.734c1.862,4.295,6.955,6.136,11.133,4.025l3.34-1.688c3.526-1.782,7.823-.773,10.187,2.392l7.896,10.571c2.261,3.027,6.308,4.099,9.771,2.588l3.17-1.383c2.234-.975,4.788-.896,6.958.214l10.359,5.3c4.732,2.421,10.477-.272,11.642-5.459l9.492-31.212,5.238-40.55,21.132-57.759c3.509-9.591-1.422-20.211-11.013-23.72Z"/><rect class="cls-3" x="118.904" y="20.214" width="36.984" height="55.646" rx="18.492" ry="18.492" transform="translate(3.212 -8.354) rotate(3.524)"/><rect class="cls-1" x="118.904" y="20.214" width="36.984" height="55.646" rx="18.492" ry="18.492" transform="translate(3.212 -8.354) rotate(3.524)"/><path class="cls-5" d="m159.606,38.98l.267-4.337c.734-11.913-8.329-22.165-20.242-22.899h0c-11.913-.734-22.165,8.329-22.899,20.242l-.267,4.337,3.961,60.518,15.916-49.813c.503-1.576,2.79-1.388,3.031.248l.27,1.834c.225,1.531,2.301,1.836,2.957.436l4.212-8.984c.726-1.549,3.055-.97,2.972.738l-3.023,62.15,12.844-64.469Z"/><circle class="cls-4" cx="135.306" cy="46.096" r="3.845"/><circle class="cls-4" cx="150.433" cy="47.027" r="3.845"/><path class="cls-1" d="m171.074,124.364c-1.624,0-3.249-.619-4.488-1.858-35.572-35.55-69.056-36.415-69.39-36.42-3.506-.048-6.31-2.93-6.262-6.436.048-3.506,2.928-6.292,6.436-6.262,1.575.022,39.013.98,78.193,40.135,2.48,2.479,2.482,6.499.003,8.98-1.24,1.241-2.866,1.861-4.491,1.861Z"/><path class="cls-1" d="m545.629,100.755c-3.387,0-6.199-2.673-6.34-6.088-.024-.586-.571-14.52,1.115-29.705,2.49-22.432,8.405-35.491,18.081-39.924,8.475-3.882,18.33-.644,29.291,9.624,2.559,2.397,2.691,6.415.293,8.975-2.397,2.559-6.415,2.691-8.975.293-8.96-8.393-13.444-8.206-15.32-7.348-1.834.84-8.028,5.459-10.735,29.644-1.594,14.242-1.069,27.785-1.064,27.921.142,3.503-2.582,6.46-6.085,6.603-.088.004-.176.005-.264.005Z"/><path class="cls-5" d="m537.504,14.716l-82.68,38.745c-3.979,2.611-.34,7.4,5.1,6.711l37.951-4.81c4.322-.548,7.984,2.539,6.385,5.383l-2.582,4.593c-1.812,3.222-4.425,17.754.099,16.371l27.953,2,12.889,5.415,8.523-16.728-10.523-36.693-3.115-20.987Z"/><path class="cls-5" d="m566.246,26.381c-.143-.63-.916-.866-1.387-.425l-46.498,43.583c-2.085,1.973-.275,5.442,2.535,4.862l18.075-3.732c2.889-.597,5.273,2.273,4.158,5.004h0c-1.263,3.094,1.912,6.138,4.95,4.744l9.732-8.528c.247-.113.533-.1.768.037l5.333,3.09c.448.26,1.022.054,1.203-.432h0c2.795-7.512,3.508-15.641,2.061-23.525l1.779-12.768-2.709-11.91Z"/><path class="cls-2" d="m552.116,68.821l-22.945-8.395c-9.591-3.509-20.211,1.422-23.72,11.013l-14.488,39.599c-6.103,16.681-25.997,8.069-40.226,18.701-9.528,7.12-19.982,11.939-27.637,7.31l-8.337-2.894c-4.108-1.426-7.284,3.726-4.164,6.756l2.866,2.783c2.357,2.289,3.107,5.771,1.899,8.827l-.644,1.629c-1.951,4.937,1.273,10.39,6.539,11.06l11.255,1.431c2.849.362,5.295,2.2,6.437,4.834l4.653,10.734c1.862,4.295,6.955,6.136,11.133,4.025l3.34-1.688c3.526-1.782,7.823-.773,10.187,2.392l7.896,10.571c2.261,3.027,6.308,4.099,9.771,2.588l3.17-1.383c2.234-.975,4.788-.896,6.958.214l10.359,5.3c4.732,2.421,10.477-.272,11.642-5.459l9.492-31.212,14.715-32.609,20.858-42.407c3.509-9.591-1.422-20.211-11.013-23.72Z"/><rect class="cls-3" x="528.245" y="20.214" width="36.984" height="55.646" rx="18.492" ry="18.492" transform="translate(3.986 -33.513) rotate(3.524)"/><rect class="cls-1" x="528.245" y="20.214" width="36.984" height="55.646" rx="18.492" ry="18.492" transform="translate(3.986 -33.513) rotate(3.524)"/><path class="cls-5" d="m568.947,38.98l.267-4.337c.734-11.913-8.329-22.165-20.242-22.899h0c-11.913-.734-22.165,8.329-22.899,20.242l-.267,4.337-7.178,55.338,27.055-44.634c.503-1.576,2.79-1.388,3.031.248l.27,1.834c.225,1.531,2.301,1.836,2.957.436l4.212-8.984c.726-1.549,3.055-.97,2.972.738l3.274,40.07,6.548-42.39Z"/><circle class="cls-4" cx="544.647" cy="46.096" r="3.845"/><circle class="cls-4" cx="559.774" cy="47.027" r="3.845"/><path class="cls-1" d="m506.618,86.087c-3.313,0-6.103-2.569-6.329-5.922-.046-.678-1.107-16.812-.045-34.196,1.591-26.04,6.838-40.217,16.515-44.614,7.461-3.39,15.951-.406,25.234,8.87,2.481,2.479,2.482,6.499.003,8.98-2.479,2.481-6.499,2.482-8.98.003-5.726-5.723-9.437-7.002-11.003-6.292-3.326,1.511-7.702,11.247-9.087,33.714-1.022,16.583.023,32.523.033,32.682.235,3.498-2.411,6.525-5.909,6.761-.145.01-.289.014-.432.014Z"/><path class="cls-1" d="m399.469,102.649c-1.556,0-3.114-.568-4.339-1.715-12.934-12.115-24.569-17.582-33.646-15.806-9.755,1.907-14.418,11.8-14.464,11.9-1.428,3.203-5.174,4.624-8.377,3.196-3.203-1.428-4.634-5.2-3.206-8.402.288-.646,7.235-15.849,23.426-19.12,13.483-2.724,28.607,3.657,44.949,18.964,2.559,2.397,2.691,6.415.293,8.975-1.25,1.334-2.941,2.009-4.635,2.009Z"/><path class="cls-5" d="m333.106,14.716l-86.579,50.479c-3.979,2.611-.34,7.4,5.1,6.711l37.951-4.81c4.322-.548,7.984,2.539,6.385,5.383l-2.582,4.593c-1.812,3.222-4.425,17.754.099,16.371l31.852-9.733,12.889,5.415,8.523-16.728-10.523-36.693-3.115-20.987Z"/><path class="cls-5" d="m361.848,26.381c-.143-.63-.916-.866-1.387-.425l-46.498,43.583c-2.085,1.973-.275,5.442,2.535,4.862l18.075-3.732c2.889-.597,5.273,2.273,4.158,5.004h0c-1.263,3.094,1.912,6.138,4.95,4.744l14.222-6.523c.247-.113.533-.1.768.037l5.333,3.09c.448.26,1.022.054,1.203-.432h0c2.795-7.512,3.508-15.641,2.061-23.525l-2.711-14.773-2.709-11.91Z"/><path class="cls-2" d="m347.719,68.821l-22.945-8.395c-9.591-3.509-20.211,1.422-23.72,11.013l-14.488,39.599c-6.103,16.681-26.27,23.421-40.499,34.053-9.528,7.12-19.982,11.939-27.637,7.31l-8.337-2.894c-4.108-1.426-7.284,3.726-4.164,6.756l2.866,2.783c2.357,2.289,3.107,5.771,1.899,8.827l-.644,1.629c-1.951,4.937,1.273,10.39,6.539,11.06l11.255,1.431c2.849.362,5.295,2.2,6.437,4.834l4.653,10.734c1.862,4.295,6.955,6.136,11.133,4.025l3.34-1.688c3.526-1.782,7.823-.773,10.187,2.392l7.896,10.571c2.261,3.027,6.308,4.099,9.771,2.588l3.17-1.383c2.234-.975,4.788-.896,6.958.214l10.359,5.3c4.732,2.421,10.477-.272,11.642-5.459l9.492-31.212,14.715-32.609,21.132-57.759c3.509-9.591-1.422-20.211-11.013-23.72Z"/><rect class="cls-3" x="323.848" y="20.214" width="36.984" height="55.646" rx="18.492" ry="18.492" transform="translate(3.6 -20.95) rotate(3.524)"/><rect class="cls-1" x="323.848" y="20.214" width="36.984" height="55.646" rx="18.492" ry="18.492" transform="translate(3.6 -20.95) rotate(3.524)"/><path class="cls-5" d="m364.55,38.98l.267-4.337c.734-11.913-8.329-22.165-20.242-22.899h0c-11.913-.734-22.165,8.329-22.899,20.242l-.267,4.337,3.961,60.518,15.916-49.813c.503-1.576,2.79-1.388,3.031.248l.27,1.834c.225,1.531,2.301,1.836,2.957.436l4.212-8.984c.726-1.549,3.055-.97,2.972.738l-3.023,62.15,12.844-64.469Z"/><circle class="cls-4" cx="340.25" cy="46.096" r="3.845"/><circle class="cls-4" cx="355.377" cy="47.027" r="3.845"/><path class="cls-1" d="m302.224,86.077c-1.4,0-2.808-.46-3.981-1.407-2.723-2.199-3.159-6.179-.968-8.908.645-.803,16.05-19.677,38.986-20.931,14.198-.774,27.841,5.272,40.553,17.976,2.481,2.479,2.482,6.499.003,8.98-2.479,2.481-6.499,2.482-8.98.003-10.023-10.017-20.382-14.821-30.794-14.283-17.236.893-29.752,16.067-29.876,16.22-1.256,1.546-3.092,2.351-4.943,2.351Z"/><path class="cls-1" d="m750.583,100.748c-.344,0-.692-.028-1.043-.086-3.453-.572-5.793-3.822-5.23-7.276.037-.228.939-5.646,3.61-11.636,3.834-8.598,9.517-14.389,16.435-16.745,11.281-3.843,24.758,1.474,40.055,15.802,2.559,2.397,2.691,6.415.293,8.975-2.397,2.559-6.415,2.691-8.975.293-11.264-10.551-20.942-15.188-27.254-13.058-8.797,2.97-11.608,18.273-11.633,18.427-.523,3.101-3.213,5.304-6.258,5.304Z"/><path class="cls-5" d="m742.448,14.716l-86.579,50.479c-3.979,2.611-.34,7.4,5.1,6.711l37.951-4.81c4.322-.548,7.984,2.539,6.385,5.383l-2.582,4.593c-1.812,3.222-4.425,17.754.099,16.371l31.852-9.733,12.889,5.415,8.523-16.728-10.523-36.693-3.115-20.987Z"/><path class="cls-5" d="m771.19,26.381c-.143-.63-.916-.866-1.387-.425l-46.498,43.583c-2.085,1.973-.275,5.442,2.535,4.862l18.075-3.732c2.889-.597,5.273,2.273,4.158,5.004h0c-1.263,3.094,1.912,6.138,4.95,4.744l14.222-6.523c.247-.113.533-.1.768.037l5.333,3.09c.448.26,1.022.054,1.203-.432h0c2.795-7.512,3.508-15.641,2.061-23.525l-2.711-14.773-2.709-11.91Z"/><path class="cls-2" d="m757.06,68.821l-22.945-8.395c-9.591-3.509-20.211,1.422-23.72,11.013l-14.488,39.599c-6.103,16.681-26.27,23.421-40.499,34.053-9.528,7.12-19.982,11.939-27.637,7.31l-8.337-2.894c-4.108-1.426-7.284,3.726-4.164,6.756l2.866,2.783c2.357,2.289,3.107,5.771,1.899,8.827l-.644,1.629c-1.951,4.937,1.273,10.39,6.539,11.06l11.255,1.431c2.849.362,5.295,2.2,6.437,4.834l4.653,10.734c1.862,4.295,6.955,6.136,11.133,4.025l3.34-1.688c3.526-1.782,7.823-.773,10.187,2.392l7.896,10.571c2.261,3.027,6.308,4.099,9.771,2.588l3.17-1.383c2.234-.975,4.788-.896,6.958.214l10.359,5.3c4.732,2.421,10.477-.272,11.642-5.459l9.492-31.212,14.715-32.609,21.132-57.759c3.509-9.591-1.422-20.211-11.013-23.72Z"/><rect class="cls-3" x="733.189" y="20.214" width="36.984" height="55.646" rx="18.492" ry="18.492" transform="translate(4.374 -46.109) rotate(3.524)"/><rect class="cls-1" x="733.189" y="20.214" width="36.984" height="55.646" rx="18.492" ry="18.492" transform="translate(4.374 -46.109) rotate(3.524)"/><path class="cls-5" d="m773.892,38.98l.267-4.337c.734-11.913-8.329-22.165-20.242-22.899h0c-11.913-.734-22.165,8.329-22.899,20.242l-.267,4.337,3.961,60.518,15.916-49.813c.503-1.576,2.79-1.388,3.031.248l.27,1.834c.225,1.531,2.301,1.836,2.957.436l4.212-8.984c.726-1.549,3.055-.97,2.972.738l-3.023,62.15,12.844-64.469Z"/><circle class="cls-4" cx="749.592" cy="46.096" r="3.845"/><circle class="cls-4" cx="764.719" cy="47.027" r="3.845"/><path class="cls-1" d="m711.563,86.084c-.908,0-1.829-.196-2.704-.609-3.169-1.496-4.528-5.272-3.036-8.443.645-1.371,16.086-33.617,41.019-37.972,12.129-2.118,24.013,2.538,35.322,13.839,2.481,2.479,2.482,6.499.003,8.98-2.479,2.48-6.499,2.482-8.98.003-8.205-8.2-16.325-11.672-24.136-10.316-9.296,1.612-17.298,9.646-22.373,16.101-5.888,7.488-9.333,14.708-9.368,14.78-1.086,2.292-3.368,3.636-5.747,3.636Z"/></svg>