<?xml version="1.0" encoding="utf-8"?>
<!-- Generator: Adobe Illustrator 26.0.0, SVG Export Plug-In . SVG Version: 6.00 Build 0)  -->
<svg version="1.1" id="Layer_1" xmlns="http://www.w3.org/2000/svg" xmlns:xlink="http://www.w3.org/1999/xlink" x="0px" y="0px"
	 viewBox="0 0 40 40" style="enable-background:new 0 0 40 40;" xml:space="preserve">
<g>
	<path style="fill:#E55203;" d="M15.9,7.9c-0.3,0.2-0.5,0.3-0.7,0.5c-0.2,0.1-0.3,0.3-0.5,0.5c-0.3,0.3-0.6,0.5-0.9,0.5c0,0,0,0,0,0
		C11.7,9.9,11.3,7,9.5,8.7c0.3,0.1,1.5,0,1.5,1c0,1.1-1.6,2.3-2.9,0.1S5,11,5.1,11.4c0.2-0.2,2-1.3,2.9,0.5c0.9,1.8,2,2.6,3.3,1.5
		c0.8-0.7,2.2,0,1.6,1.1c-0.6,1-1.6,0-1.6,0c0,0.7-0.1,1.7,1.2,1.6c0,0,0,0,0,0c0.6,0,1.1,0.3,1.4,0.8c0.1,0.1,0.1,0.2,0.2,0.3
		c0.2,0.3,0.4,0.5,0.6,0.8c1,1.1,2.5,2,4.1,2.2c3.3,0.4,6.5-1.8,7.3-5.1c0.9-3.8-1.6-7.4-5.4-8C18.9,6.7,17.3,7,15.9,7.9z"/>
</g>
<path style="fill:#E55203;" d="M40,20c0,1.8-0.2,3.5-0.7,5.2c-1.1,4-3.4,7.5-6.4,10.1c-1.4,1.2-3,2.2-4.8,3c-2.3,1-4.7,1.6-7.3,1.7
	c-0.3,0-0.5,0-0.8,0C9,40,0,31,0,20S9,0,20,0S40,9,40,20z"/>
<g>
	<path style="fill:#F4B03F;" d="M13.1,31.5C13.1,31.5,13.2,31.5,13.1,31.5c0.9-0.2,1.8,0,2.5,0.6c0.1,0.1,0.1,0.1,0.2,0.2
		c2.9-2.4,6.7-4,10.3-5.7c2.1-2.2,4-4.6,5.8-7c-2.1-2.2-5.3-3.6-8.8-3.4c-2.7,0.1-5.2,1.2-7,2.8c-0.3,0.3-0.7,0.6-1,1
		c-0.2,0.3-0.4,0.5-0.6,0.8c-0.3,0.4-0.7,0.8-1.3,1c0,0,0,0,0,0c-3.2,1.3-4.7-2.6-7,0.4c0.5,0,2.4-0.5,2.8,1
		c0.4,1.5-1.8,3.8-4.6,1.1c-2.8-2.7-4.5,2.5-4.3,3.1c0.3-0.3,2.7-2.5,4.7-0.2c2,2.2,4,2.9,5.7,1.1c1-1.2,3.4-0.7,2.9,1
		c-0.5,1.6-2.5,0.4-2.5,0.4C11,30.6,11.2,31.9,13.1,31.5z"/>
</g>
<g>
	<path style="fill:#F4B03F;" d="M12.1,18.2c-0.2-0.5-0.3-1-0.4-1.4c-0.1-0.4-0.1-0.7-0.1-1.1c0-0.6-0.2-1.2-0.6-1.7c0,0,0,0,0,0
		c-2.2-2.9-5.7,0.4-6.2-3.7c0.5,0.2,1.9,1.7,3.1,0.3C9,9.2,8.3,5.8,4.2,7.2S1.5,2.5,2,2C2,2.5,3.1,5.9,6.1,4.5
		c3-1.4,5.3-1.1,5.8,1.6c0.3,1.7,2.8,2.3,3.2,0.3c0.4-1.9-2-1.6-2-1.6c0.8-1,1.7-2.2,3.2-0.8c0,0,0,0,0,0C17,4.6,18,4.8,18.9,4.5
		c0.2-0.1,0.4-0.1,0.6-0.2C20,4.1,20.5,4,21,3.9c2.5-0.4,5.2,0.1,7.6,1.7c4.7,3,6.4,9.3,3.8,14.3c-2.9,5.7-10,7.7-15.5,4.5
		C14.5,22.9,12.9,20.7,12.1,18.2z"/>
</g>
<g>
	<path style="fill:#F4B03F;" d="M39.3,25.2c-1.1,4-3.4,7.5-6.4,10.1c-0.1-0.3-0.2-0.5-0.4-0.8c0,0,0,0,0,0c-2.2-2.9-5.7,0.4-6.2-3.7
		c0.5,0.2,1.9,1.7,3.1,0.3c1.2-1.4,0.5-4.7-3.6-3.3c-4,1.4-2.7-4.7-2.3-5.2c0.1,0.5,1.2,3.8,4.2,2.5c3-1.4,5.3-1.1,5.8,1.6
		c0.3,1.7,2.8,2.3,3.2,0.3c0.4-1.9-2-1.6-2-1.6c0.8-1,1.7-2.2,3.2-0.8c0,0,0,0,0,0C38.2,24.9,38.8,25.1,39.3,25.2z"/>
</g>
<g>
	<path style="fill:#4F200B;" d="M35.8,14.2c0,0.3,0,0.7,0,1c-0.6,10.4-9.3,22-23.8,21.1l0,0C7.6,36,3.5,34.6,0,32
		c0.6,0.1,1.2,0.2,1.9,0.2c3.6,0.2,7.1-0.8,10-2.8c-3.4-0.3-6.2-2.7-7-5.9c1.2,0.3,2.4,0.3,3.6,0.1c-3.6-1-6.1-4.4-5.9-8.1l0-0.1
		c1.1,0.7,2.3,1.1,3.5,1.2C2.8,14.1,2,9.4,4.3,5.9c3.7,5.2,9.4,8.5,15.8,9.2c-0.5-2.8,0.6-5.6,2.7-7.4c3.4-2.8,8.4-2.3,11.1,1
		c1.8-0.2,3.5-0.8,5.1-1.6c-0.7,1.8-2,3.3-3.7,4.2c1.6-0.1,3.1-0.4,4.6-1C38.8,11.9,37.4,13.2,35.8,14.2L35.8,14.2z"/>
</g>
<g>
	<path style="fill:#F4B03F;" d="M28.1,38.3c-2.3,1-4.7,1.6-7.3,1.7c-0.8-0.6-1-1.9-0.7-3.6c0.5-2.5-2.2-2.7-2.6-2.7
		c0.3-0.4,4.6-2.5,4.3,0.7c-0.3,3.3,2.3,3.2,3.1,2.1c0.8-1.1-0.5-1.9-0.8-2.2C27.3,33.9,25.5,37.1,28.1,38.3
		C28.1,38.2,28.1,38.2,28.1,38.3C28.1,38.2,28.1,38.3,28.1,38.3z"/>
</g>
<g>
	<path style="fill:#E55203;" d="M26.4,11.7c0.1,0,0.2,0,0.2,0c0.1,0,0.2,0,0.3,0c0,0,0,0,0,0c2.1-0.2,5.3-2.3,5.3-2.3
		c-2.6-1-4.2-1.3-5.3-1.1c-0.3,0-0.5,0-0.7,0.1c-0.1,0-0.1,0.1-0.2,0.1c0,0-0.1,0.1-0.1,0.1c-0.1,0.1-0.2,0.1-0.3,0.1c0,0,0,0,0,0
		c-0.6,0-0.5-0.7-1.1-0.4c0.1,0,0.4,0.1,0.4,0.3c0,0.3-0.5,0.5-0.8-0.1c-0.2-0.6-0.8,0.1-0.8,0.3c0.1,0,0.6-0.2,0.7,0.2
		c0,0.1,0.1,0.2,0.1,0.3c-0.1,0-0.2,0-0.3,0.2c0.1,0,0.4-0.1,0.5,0.2c0.1,0.3-0.3,0.7-0.7,0.2c-0.5-0.5-0.7,0.5-0.7,0.6
		c0-0.1,0.4-0.4,0.7-0.1c0.3,0.4,0.7,0.5,0.9,0.2c0.2-0.2,0.5-0.1,0.5,0.2c-0.1,0.3-0.4,0.1-0.4,0.1c0,0.2,0.1,0.4,0.4,0.3
		c0,0,0,0,0,0c0.1,0,0.3,0,0.4,0.1c0,0,0,0,0.1,0.1c0.1,0.1,0.1,0.1,0.2,0.2c0,0,0,0,0.1,0c0.1,0.1,0.2,0.1,0.4,0.2
		C26.2,11.7,26.3,11.7,26.4,11.7z"/>
</g>
<path style="fill:#F4B03F;" d="M27.3,10.9c0,0,0.1,0,0.1,0c0.1,0,0.1,0,0.2,0c0,0,0,0,0,0c1.2-0.1,3.1-1.4,3.1-1.4
	c-1.5-0.6-2.5-0.7-3.1-0.7c-0.1,0-0.3,0-0.4,0.1c0,0-0.1,0-0.1,0.1C27,9,27,9,27,9c0,0-0.1,0.1-0.2,0.1c0,0,0,0,0,0
	c-0.3,0-0.3-0.4-0.6-0.2c0,0,0.2,0,0.2,0.2c0,0.2-0.3,0.3-0.4,0c-0.1-0.4-0.5,0.1-0.5,0.1c0,0,0.3-0.1,0.4,0.1
	c0,0.1,0.1,0.1,0.1,0.2c-0.1,0-0.1,0-0.2,0.1c0.1,0,0.2-0.1,0.3,0.1c0,0.2-0.1,0.4-0.4,0.1s-0.4,0.3-0.4,0.3c0,0,0.2-0.3,0.4,0
	c0.2,0.2,0.4,0.3,0.5,0.1c0.1-0.1,0.3-0.1,0.3,0.1c0,0.2-0.2,0.1-0.2,0.1c0,0.1,0.1,0.2,0.2,0.2c0,0,0,0,0,0c0.1,0,0.2,0,0.2,0.1
	c0,0,0,0,0,0c0,0,0.1,0.1,0.1,0.1c0,0,0,0,0,0c0.1,0,0.1,0.1,0.2,0.1C27.2,10.8,27.2,10.8,27.3,10.9z"/>
</svg>
