<?xml version="1.0" encoding="UTF-8"?>
<svg id="Layer_1" data-name="Layer 1" xmlns="http://www.w3.org/2000/svg" width="856" height="258.057" xmlns:xlink="http://www.w3.org/1999/xlink" viewBox="0 0 856 258.057">
  <defs>
    <style>
      .cls-1 {
        fill: #7c453a;
      }

      .cls-1, .cls-2, .cls-3, .cls-4, .cls-5, .cls-6, .cls-7, .cls-8, .cls-9, .cls-10 {
        stroke-width: 0px;
      }

      .cls-2 {
        fill: #e9a999;
      }

      .cls-11 {
        clip-path: url(#clippath-2);
      }

      .cls-3 {
        fill: #cc4f51;
      }

      .cls-4 {
        fill: none;
      }

      .cls-5 {
        fill: #d39170;
      }

      .cls-12 {
        clip-path: url(#clippath-1);
      }

      .cls-6 {
        fill: #14242f;
      }

      .cls-13 {
        clip-path: url(#clippath);
      }

      .cls-7 {
        fill: #e7cdac;
      }

      .cls-14 {
        clip-path: url(#clippath-3);
      }

      .cls-8 {
        fill: #775943;
      }

      .cls-9 {
        fill: #9f5c51;
      }

      .cls-10 {
        fill: #d39173;
      }
    </style>
    <clipPath id="clippath">
      <path class="cls-4" d="m136.026,58.32h61.417v49.287c0,16.948-13.76,30.709-30.709,30.709h0c-16.948,0-30.709-13.76-30.709-30.709v-49.287h0Z" transform="translate(333.469 196.636) rotate(-180)"/>
    </clipPath>
    <clipPath id="clippath-1">
      <path class="cls-4" d="m350.026,58.32h61.417v49.287c0,16.948-13.76,30.709-30.709,30.709h0c-16.948,0-30.709-13.76-30.709-30.709v-49.287h0Z" transform="translate(761.469 196.636) rotate(-180)"/>
    </clipPath>
    <clipPath id="clippath-2">
      <path class="cls-4" d="m778.026,58.32h61.417v49.287c0,16.948-13.76,30.709-30.709,30.709h0c-16.948,0-30.709-13.76-30.709-30.709v-49.287h0Z" transform="translate(1617.469 196.636) rotate(-180)"/>
    </clipPath>
    <clipPath id="clippath-3">
      <path class="cls-4" d="m564.026,58.32h61.417v49.287c0,16.948-13.76,30.709-30.709,30.709h0c-16.948,0-30.709-13.76-30.709-30.709v-49.287h0Z" transform="translate(1189.469 196.636) rotate(-180)"/>
    </clipPath>
  </defs>
  <rect class="cls-8" x="0" y="238.151" width="214" height="19.906" rx="9.953" ry="9.953"/>
  <rect class="cls-8" x="214" y="238.151" width="214" height="19.906" rx="9.953" ry="9.953"/>
  <rect class="cls-8" x="642" y="238.151" width="214" height="19.906" rx="9.953" ry="9.953"/>
  <rect class="cls-8" x="428" y="238.151" width="214" height="19.906" rx="9.953" ry="9.953"/>
  <g>
    <rect class="cls-1" x="1.038" y="192.108" width="18.056" height="32.234"/>
    <g>
      <g>
        <path class="cls-10" d="m117.063,122.029c-2.623,0-5.077-1.638-5.993-4.253-1.159-3.31.585-6.932,3.895-8.091,29.088-10.182,30.515-25.158,30.562-25.79-.007.095-.006.144-.006.144l12.695.328c-.018.692-.329,6.984-5.668,14.688-6.637,9.576-17.87,17.185-33.387,22.616-.694.243-1.402.358-2.098.358Z"/>
        <g>
          <g>
            <path class="cls-10" d="m147.93,217.107c-14.835-34.936-.797-78.937-.193-80.793l12.074,3.935-6.037-1.967,6.039,1.963c-.133.41-13.15,41.389-.194,71.899l-11.689,4.964Z"/>
            <g>
              <ellipse class="cls-6" cx="151.664" cy="136.287" rx="13.19" ry="13.792"/>
              <path class="cls-6" d="m138.473,201.156h26.38c-3.119-12.894-3.458-47.842,0-64.869h-26.38c-5.58,15.33-4.901,49.261,0,64.869Z"/>
            </g>
          </g>
          <g>
            <path class="cls-1" d="m127.31,227.784v-1.739c0-4.777,3.872-8.649,8.649-8.649h0c4.777,0,8.649,3.872,8.649,8.649v1.739h-11.885s-1.675,0-1.675,0h-3.738Z"/>
            <path class="cls-1" d="m141.085,217.396v-.671c0-3.555,2.882-6.436,6.436-6.436,1.147,0,2.222.303,3.154.829h6.397c2.581,0,4.673,2.092,4.673,4.673v6.277s0,2.317,0,2.317v3.397h-25.787v-10.387h5.127Z"/>
            <rect class="cls-9" x="143.927" y="207.877" width="15.845" height="3.77" rx="1.885" ry="1.885" transform="translate(303.698 419.524) rotate(180)"/>
            <polygon class="cls-1" points="161.745 227.783 161.745 225.031 135.053 225.031 135.053 227.745 161.745 227.783"/>
          </g>
        </g>
        <g class="cls-13">
          <g>
            <rect class="cls-6" x="117.181" y="46.696" width="94.71" height="7.753"/>
            <rect class="cls-3" x="117.181" y="54.449" width="94.71" height="7.753"/>
            <rect class="cls-6" x="117.181" y="61.888" width="94.71" height="7.753"/>
            <rect class="cls-3" x="117.181" y="69.641" width="94.71" height="7.753"/>
            <rect class="cls-6" x="117.181" y="77.079" width="94.71" height="7.753"/>
            <rect class="cls-3" x="117.181" y="84.832" width="94.71" height="7.753"/>
            <rect class="cls-6" x="117.181" y="92.27" width="94.71" height="7.753"/>
            <rect class="cls-3" x="117.181" y="100.023" width="94.71" height="7.753"/>
            <rect class="cls-6" x="117.181" y="107.462" width="94.71" height="7.753"/>
            <rect class="cls-3" x="117.181" y="115.214" width="94.71" height="7.753"/>
            <rect class="cls-6" x="117.181" y="122.653" width="94.71" height="7.753"/>
            <rect class="cls-3" x="117.181" y="130.406" width="94.71" height="7.753"/>
          </g>
        </g>
        <rect class="cls-2" x="147.061" y="13.756" width="36.984" height="55.646" rx="18.492" ry="18.492" transform="translate(331.107 83.158) rotate(180)"/>
        <rect class="cls-10" x="147.061" y="13.756" width="36.984" height="55.646" rx="18.492" ry="18.492" transform="translate(331.107 83.158) rotate(180)"/>
        <circle class="cls-6" cx="167.759" cy="39.769" r="3.845"/>
        <circle class="cls-6" cx="152.603" cy="39.769" r="3.845"/>
        <g>
          <g>
            <path class="cls-10" d="m177.846,217.107c-14.835-34.936-.797-78.937-.193-80.793l12.074,3.935-6.037-1.967,6.039,1.963c-.133.41-13.15,41.389-.194,71.899l-11.689,4.964Z"/>
            <ellipse class="cls-6" cx="181.579" cy="136.287" rx="13.19" ry="13.792"/>
          </g>
          <g>
            <path class="cls-1" d="m157.225,227.784v-1.739c0-4.777,3.872-8.649,8.649-8.649h0c4.777,0,8.649,3.872,8.649,8.649v1.739h-11.885s-1.675,0-1.675,0h-3.738Z"/>
            <path class="cls-1" d="m171.001,217.396v-.671c0-3.555,2.882-6.436,6.436-6.436,1.147,0,2.222.303,3.154.829h6.397c2.581,0,4.673,2.092,4.673,4.673v6.277s0,2.317,0,2.317v3.397h-25.787v-10.387h5.127Z"/>
            <rect class="cls-9" x="173.842" y="207.877" width="15.845" height="3.77" rx="1.885" ry="1.885" transform="translate(363.529 419.524) rotate(-180)"/>
            <polygon class="cls-1" points="191.661 227.783 191.661 225.031 164.969 225.031 164.969 227.745 191.661 227.783"/>
          </g>
        </g>
        <path class="cls-6" d="m168.672,201.156h26.38c-3.119-12.894-3.458-47.842,0-64.869h-26.38c-5.58,15.33-4.901,49.261,0,64.869Z"/>
        <g>
          <ellipse class="cls-1" cx="165.74" cy="26.79" rx="30.311" ry="5.354"/>
          <path class="cls-9" d="m162.162,1.531c-1.632,4.072-10.418,4.524-10.418,4.524l-6.316,16.189c-.276.348-.421.709-.421,1.078,0,2.957,9.282,5.353,20.731,5.353s20.731-2.397,20.731-5.353c-.418-22.847-22.677-25.863-24.308-21.791Z"/>
        </g>
        <polygon class="cls-10" points="148.774 34.613 158.105 39.703 173.487 35.462 164.326 33.426 148.774 34.613"/>
      </g>
      <path class="cls-9" d="m157.973,43.077s-6.108,4.298-5.655,8.973c0,0,4.976-4.901,6.711-3.468"/>
      <g>
        <path class="cls-1" d="m105.446,114.066c.709-.248,1.422-.452,2.135-.659l1.071-.289,1.074-.255c.359-.082.713-.207,1.069-.318.356-.107.718-.146,1.088-.11.739.084,1.488.268,2.271.839l.021.231c-.668.703-1.371,1.019-2.083,1.235-.357.102-.72.129-1.09.087-.37-.045-.741-.104-1.108-.12l-1.103-.057-1.106-.091c-.739-.075-1.477-.147-2.219-.263l-.021-.231Z"/>
        <path class="cls-1" d="m105.684,120.324c.616-.431,1.247-.819,1.878-1.212l.954-.568.965-.535c.323-.176.631-.392.943-.595.314-.2.652-.335,1.017-.4.734-.119,1.505-.144,2.414.194l.083.216c-.453.857-1.044,1.352-1.671,1.752-.316.194-.659.319-1.026.379-.368.057-.742.1-1.1.184l-1.077.243-1.089.211c-.732.127-1.462.258-2.208.346l-.083-.216Z"/>
        <path class="cls-1" d="m111.173,125.034c.433-.614.894-1.195,1.354-1.778l.703-.858.726-.832c.244-.275.46-.583.684-.88.227-.294.499-.537.821-.722.65-.362,1.367-.647,2.336-.638l.151.175c-.134.96-.522,1.626-.976,2.216-.231.29-.511.523-.836.705-.327.179-.663.347-.972.547l-.93.595-.953.569c-.644.368-1.287.739-1.958,1.077l-.151-.175Z"/>
      </g>
      <g>
        <path class="cls-9" d="m181.235,51.08c-.145,0-.288-.068-.378-.195l-.596-.842c-.637-.9-1.821-1.205-2.814-.726-.89.429-1.946.417-2.825-.032l-2.975-1.519c-.601-.307-1.301-.328-1.92-.06l-6.629,2.882c-.234.102-.507-.006-.609-.24-.102-.235.005-.507.24-.609l6.629-2.882c.874-.38,1.862-.349,2.711.084l2.975,1.519c.623.318,1.371.327,2.001.023,1.402-.677,3.072-.246,3.972,1.024l.596.842c.148.209.098.498-.11.645-.081.058-.175.085-.267.085Z"/>
        <path class="cls-9" d="m179.99,57.414c-.096,0-.193-.03-.276-.092l-3.232-2.404c-.612-.455-1.405-.569-2.12-.305l-3.898,1.436c-.871.321-1.835.245-2.646-.207l-2.996-1.672c-.422-.235-.899-.328-1.378-.267l-9.861,1.246c-.254.031-.485-.148-.517-.401-.032-.254.148-.485.401-.517l9.861-1.246c.677-.085,1.35.045,1.946.378l2.996,1.672c.574.32,1.257.374,1.874.146l3.898-1.436c1.01-.372,2.129-.211,2.993.431l3.233,2.404c.205.152.248.442.095.648-.091.122-.23.187-.372.187Z"/>
        <path class="cls-9" d="m167.916,63.799c-.516,0-1.03-.127-1.498-.378l-1.395-.747c-.343-.184-.731-.273-1.119-.266l-8.218.208c-.256.01-.468-.195-.475-.451s.196-.468.451-.474l8.218-.208c.55-.01,1.096.116,1.58.375l1.395.747c.601.322,1.306.355,1.934.091l3.26-1.369c.896-.376,1.898-.325,2.751.14l1.342.732c.224.123.307.404.185.628-.122.224-.404.307-.628.185l-1.342-.732c-.604-.329-1.314-.365-1.949-.099l-3.26,1.369c-.396.167-.814.249-1.231.249Z"/>
        <path class="cls-9" d="m173.883,41.58c-.098,0-.196-.031-.28-.095-.203-.155-.243-.445-.088-.649l1.194-1.567c.475-.623,1.227-.978,2.009-.97l.962.02c.562.012,1.07-.271,1.356-.757s.287-1.067.003-1.553c-.274-.47-.783-.762-1.327-.762h-1.679c-.256,0-.463-.207-.463-.463s.207-.463.463-.463h1.679c.873,0,1.688.468,2.127,1.222.455.78.453,1.711-.004,2.489-.458.778-1.268,1.223-2.173,1.214l-.962-.02c-.49-.009-.957.216-1.254.605l-1.194,1.567c-.091.12-.229.182-.369.182Z"/>
      </g>
    </g>
    <rect class="cls-7" x="0" y="109.43" width="164.677" height="88.672"/>
    <path class="cls-10" d="m158.684,122.029c-2.623,0-5.077-1.638-5.993-4.253-1.159-3.31.585-6.932,3.895-8.091,29.088-10.182,30.515-25.158,30.562-25.79-.007.095-.006.144-.006.144l12.695.328c-.018.692-.329,6.984-5.668,14.688-6.637,9.576-17.87,17.185-33.387,22.616-.694.243-1.402.358-2.098.358Z"/>
    <g>
      <path class="cls-1" d="m145.823,113.839c.709-.248,1.422-.452,2.135-.659l1.071-.289,1.074-.255c.359-.082.713-.207,1.069-.318.356-.107.718-.146,1.088-.11.739.084,1.488.268,2.271.839l.021.231c-.668.703-1.371,1.019-2.083,1.235-.357.102-.72.129-1.09.087-.37-.045-.741-.104-1.109-.12l-1.103-.057-1.106-.091c-.739-.075-1.477-.147-2.219-.263l-.021-.231Z"/>
      <path class="cls-1" d="m146.061,120.098c.616-.431,1.247-.819,1.878-1.212l.953-.568.966-.535c.323-.176.63-.392.943-.595.314-.2.652-.335,1.017-.4.734-.119,1.505-.144,2.414.194l.083.216c-.453.857-1.044,1.352-1.671,1.752-.316.194-.659.319-1.026.379-.368.057-.742.1-1.1.184l-1.077.243-1.089.211c-.732.127-1.462.258-2.208.346l-.083-.216Z"/>
      <path class="cls-1" d="m151.551,124.808c.433-.614.895-1.195,1.354-1.778l.703-.858.726-.832c.244-.275.46-.583.684-.88.227-.294.499-.537.82-.722.65-.362,1.367-.647,2.336-.638l.151.175c-.135.96-.522,1.626-.976,2.216-.231.29-.511.523-.836.705-.327.179-.663.347-.972.547l-.93.595-.953.569c-.644.368-1.287.739-1.958,1.077l-.151-.175Z"/>
    </g>
    <g>
      <rect class="cls-1" x="73.311" y="154.784" width="18.056" height="84.148"/>
      <rect class="cls-1" x="40.264" y="187.831" width="84.148" height="18.056"/>
    </g>
    <path class="cls-6" d="m82.338,247.847c-28.427,0-51.554-23.127-51.554-51.554s23.127-51.554,51.554-51.554,51.554,23.127,51.554,51.554-23.127,51.554-51.554,51.554Zm0-85.053c-18.471,0-33.499,15.027-33.499,33.499s15.027,33.499,33.499,33.499,33.499-15.028,33.499-33.499-15.027-33.499-33.499-33.499Z"/>
  </g>
  <g>
    <g>
      <g>
        <path class="cls-10" d="m320.627,91.578c-2.623,0-5.077-1.638-5.993-4.253-1.159-3.31.585-6.932,3.895-8.091,15.267-5.344,28.284-7.119,38.69-5.274,8.564,1.518,12.455,5.066,13.148,5.762l-8.997,8.962s.059.071.194.184c-.094-.079-9.78-7.819-38.839,2.353-.694.243-1.402.358-2.098.358Z"/>
        <g>
          <g>
            <path class="cls-10" d="m361.93,217.107c-14.835-34.936-.798-78.937-.193-80.793l12.074,3.935-6.037-1.967,6.039,1.963c-.133.41-13.15,41.389-.194,71.899l-11.689,4.964Z"/>
            <g>
              <ellipse class="cls-6" cx="365.664" cy="136.287" rx="13.19" ry="13.792"/>
              <path class="cls-6" d="m352.473,201.156h26.38c-3.119-12.894-3.458-47.842,0-64.869h-26.38c-5.58,15.33-4.901,49.261,0,64.869Z"/>
            </g>
          </g>
          <g>
            <path class="cls-1" d="m341.31,227.784v-1.739c0-4.777,3.872-8.649,8.649-8.649h0c4.777,0,8.649,3.872,8.649,8.649v1.739h-11.885s-1.675,0-1.675,0h-3.738Z"/>
            <path class="cls-1" d="m355.085,217.396v-.671c0-3.555,2.882-6.436,6.436-6.436,1.147,0,2.222.303,3.154.829h6.397c2.581,0,4.673,2.092,4.673,4.673v6.277s0,2.317,0,2.317v3.397h-25.787v-10.387h5.127Z"/>
            <rect class="cls-9" x="357.927" y="207.877" width="15.845" height="3.77" rx="1.885" ry="1.885" transform="translate(731.698 419.524) rotate(-180)"/>
            <polygon class="cls-1" points="375.745 227.783 375.745 225.031 349.053 225.031 349.053 227.745 375.745 227.783"/>
          </g>
        </g>
        <g class="cls-12">
          <g>
            <rect class="cls-6" x="331.181" y="46.696" width="94.71" height="7.753"/>
            <rect class="cls-3" x="331.181" y="54.449" width="94.71" height="7.753"/>
            <rect class="cls-6" x="331.181" y="61.888" width="94.71" height="7.753"/>
            <rect class="cls-3" x="331.181" y="69.641" width="94.71" height="7.753"/>
            <rect class="cls-6" x="331.181" y="77.079" width="94.71" height="7.753"/>
            <rect class="cls-3" x="331.181" y="84.832" width="94.71" height="7.753"/>
            <rect class="cls-6" x="331.181" y="92.27" width="94.71" height="7.753"/>
            <rect class="cls-3" x="331.181" y="100.023" width="94.71" height="7.753"/>
            <rect class="cls-6" x="331.181" y="107.462" width="94.71" height="7.753"/>
            <rect class="cls-3" x="331.181" y="115.214" width="94.71" height="7.753"/>
            <rect class="cls-6" x="331.181" y="122.653" width="94.71" height="7.753"/>
            <rect class="cls-3" x="331.181" y="130.406" width="94.71" height="7.753"/>
          </g>
        </g>
        <rect class="cls-2" x="361.061" y="13.756" width="36.984" height="55.646" rx="18.492" ry="18.492" transform="translate(759.107 83.158) rotate(180)"/>
        <rect class="cls-10" x="361.061" y="13.756" width="36.984" height="55.646" rx="18.492" ry="18.492" transform="translate(759.107 83.158) rotate(180)"/>
        <path class="cls-10" d="m359.987,89.09c-2.623,0-5.077-1.638-5.993-4.253-1.159-3.31.585-6.932,3.895-8.091,15.408-5.394,28.943-6.721,40.23-3.943,8.892,2.188,13.144,6.178,13.906,6.956l-9.07,8.888s.033.038.105.104c-.112-.104-2.808-2.55-9.024-3.856-5.984-1.256-16.385-1.612-31.951,3.837-.694.243-1.402.358-2.098.358Z"/>
        <circle class="cls-6" cx="381.759" cy="39.769" r="3.845"/>
        <circle class="cls-6" cx="366.603" cy="39.769" r="3.845"/>
        <g>
          <ellipse class="cls-1" cx="379.74" cy="26.79" rx="30.311" ry="5.354"/>
          <path class="cls-9" d="m376.162,1.531c-1.632,4.072-10.418,4.524-10.418,4.524l-6.316,16.189c-.276.348-.421.709-.421,1.078,0,2.957,9.282,5.353,20.731,5.353s20.731-2.397,20.731-5.353c-.418-22.847-22.677-25.863-24.308-21.791Z"/>
        </g>
        <polygon class="cls-10" points="362.774 34.613 372.105 39.703 387.487 35.462 378.326 33.426 362.774 34.613"/>
        <g>
          <path class="cls-5" d="m390.044,218.725c-16.773-26.237-15.79-47.615-12.012-60.928,4.164-14.672,12.563-23.023,12.918-23.371l8.888,9.071-4.444-4.535,4.469,4.511c-1.067,1.069-25.814,26.656.881,68.413l-10.7,6.84Z"/>
          <g>
            <ellipse class="cls-6" cx="395.592" cy="136.879" rx="13.792" ry="13.19" transform="translate(132.16 462.198) rotate(-70.087)"/>
            <rect class="cls-6" x="376.688" y="135.876" width="26.38" height="33.55" transform="translate(704.454 428.966) rotate(-160.087)"/>
          </g>
          <g>
            <path class="cls-1" d="m375.918,234.284l-.664-1.607c-1.824-4.415.277-9.472,4.691-11.296h0c4.415-1.824,9.472.277,11.296,4.691l.664,1.607-10.985,4.538-1.548.639-3.455,1.427Z"/>
            <path class="cls-1" d="m384.685,219.423l-.256-.62c-1.357-3.285.206-7.049,3.491-8.406,1.06-.438,2.169-.568,3.232-.438l5.912-2.442c2.385-.985,5.117.15,6.103,2.535l2.397,5.802.885,2.141,1.297,3.14-23.834,9.846-3.966-9.6,4.739-1.958Z"/>
            <rect class="cls-9" x="383.795" y="206.373" width="15.845" height="3.77" rx="1.885" ry="1.885" transform="translate(833.274 251.18) rotate(157.555)"/>
            <polygon class="cls-1" points="407.745 221.135 406.694 218.591 382.024 228.783 383.061 231.291 407.745 221.135"/>
          </g>
          <path class="cls-6" d="m396.566,172.915s-4.398,14.557,1.257,22.926l-21.489,9.727s-9.82-21.07-4.571-41.638"/>
        </g>
      </g>
      <path class="cls-9" d="m371.973,43.077s-6.108,4.298-5.655,8.973c0,0,4.976-4.901,6.711-3.468"/>
      <g>
        <path class="cls-1" d="m308.135,82.849c.709-.248,1.422-.452,2.135-.659l1.071-.289,1.074-.255c.358-.082.713-.207,1.069-.318.356-.107.718-.146,1.088-.11.739.084,1.488.268,2.271.839l.021.231c-.668.703-1.371,1.019-2.083,1.235-.357.102-.72.129-1.09.087-.37-.045-.741-.104-1.108-.12l-1.103-.057-1.106-.091c-.739-.075-1.477-.147-2.219-.263l-.021-.231Z"/>
        <path class="cls-1" d="m308.374,89.108c.616-.431,1.247-.819,1.878-1.212l.953-.568.966-.535c.323-.176.63-.392.943-.595.314-.2.652-.335,1.017-.4.734-.119,1.505-.144,2.414.194l.083.216c-.453.857-1.044,1.352-1.672,1.752-.316.194-.658.319-1.025.379-.368.057-.742.1-1.1.184l-1.077.243-1.089.211c-.732.127-1.462.258-2.208.346l-.083-.216Z"/>
        <path class="cls-1" d="m313.863,93.818c.432-.614.894-1.195,1.354-1.778l.703-.858.726-.832c.244-.275.46-.583.684-.88.227-.294.499-.537.821-.722.65-.362,1.367-.647,2.336-.638l.151.175c-.134.96-.522,1.626-.976,2.216-.231.29-.511.523-.836.705-.327.178-.663.347-.972.547l-.93.595-.953.569c-.645.368-1.287.739-1.958,1.077l-.151-.175Z"/>
      </g>
      <g>
        <path class="cls-1" d="m348.174,80.927c.709-.248,1.422-.452,2.135-.659l1.071-.289,1.074-.255c.358-.082.713-.207,1.069-.318.356-.107.718-.146,1.088-.11.739.084,1.488.268,2.271.839l.021.231c-.668.703-1.371,1.019-2.083,1.235-.357.102-.72.129-1.09.087-.37-.045-.741-.104-1.108-.12l-1.103-.057-1.106-.091c-.739-.075-1.477-.147-2.219-.263l-.021-.231Z"/>
        <path class="cls-1" d="m348.412,87.185c.616-.431,1.247-.819,1.878-1.212l.953-.568.966-.535c.323-.176.63-.392.943-.595.314-.2.652-.335,1.017-.4.734-.119,1.505-.144,2.414.194l.083.216c-.453.857-1.044,1.352-1.672,1.752-.316.194-.658.319-1.025.379-.368.057-.742.1-1.1.184l-1.077.243-1.089.211c-.732.127-1.462.258-2.208.346l-.083-.216Z"/>
        <path class="cls-1" d="m353.901,91.895c.432-.614.894-1.195,1.354-1.778l.703-.858.726-.832c.244-.275.46-.583.684-.88.227-.294.499-.537.821-.722.65-.362,1.367-.647,2.336-.638l.151.175c-.134.96-.522,1.626-.976,2.216-.231.29-.511.523-.836.705-.327.178-.663.347-.972.547l-.93.595-.953.569c-.645.368-1.287.739-1.958,1.077l-.151-.175Z"/>
      </g>
      <g>
        <path class="cls-9" d="m395.235,51.08c-.145,0-.288-.068-.378-.195l-.596-.842c-.637-.9-1.821-1.205-2.814-.726-.889.43-1.945.418-2.825-.032l-2.975-1.519c-.601-.307-1.301-.328-1.92-.06l-6.629,2.882c-.234.103-.507-.005-.609-.24s.005-.507.24-.609l6.629-2.882c.874-.38,1.862-.349,2.711.084l2.975,1.519c.623.318,1.371.327,2.001.023,1.402-.677,3.072-.246,3.972,1.024l.596.842c.148.209.098.498-.11.645-.081.058-.175.085-.267.085Z"/>
        <path class="cls-9" d="m393.99,57.414c-.096,0-.193-.03-.276-.092l-3.232-2.404c-.612-.455-1.405-.569-2.12-.305l-3.898,1.436c-.871.321-1.835.245-2.646-.207l-2.996-1.672c-.422-.235-.899-.328-1.379-.267l-9.861,1.246c-.253.03-.485-.148-.517-.401-.032-.254.148-.485.401-.517l9.861-1.246c.677-.085,1.35.045,1.946.378l2.996,1.672c.574.32,1.257.374,1.874.146l3.898-1.436c1.01-.372,2.129-.211,2.993.431l3.232,2.404c.205.152.248.442.095.648-.091.122-.23.187-.372.187Z"/>
        <path class="cls-9" d="m381.916,63.799c-.516,0-1.029-.127-1.498-.378l-1.395-.747c-.343-.184-.732-.275-1.119-.266l-8.218.208c-.258.012-.468-.195-.475-.451-.006-.256.196-.468.451-.474l8.218-.208c.55-.014,1.096.116,1.58.375l1.395.747c.601.322,1.306.355,1.934.091l3.26-1.369c.896-.376,1.898-.325,2.751.14l1.342.732c.224.123.307.404.185.628-.122.224-.403.308-.628.185l-1.342-.732c-.604-.329-1.314-.365-1.948-.099l-3.26,1.369c-.396.167-.814.249-1.231.249Z"/>
        <path class="cls-9" d="m387.883,41.58c-.098,0-.196-.031-.28-.095-.203-.155-.243-.446-.088-.649l1.194-1.567c.475-.623,1.221-.985,2.009-.97l.962.02c.558.012,1.07-.271,1.356-.757.286-.486.287-1.067.003-1.553-.274-.47-.783-.762-1.327-.762h-1.679c-.256,0-.463-.207-.463-.463s.207-.463.463-.463h1.679c.872,0,1.688.468,2.127,1.222.455.78.453,1.711-.004,2.489-.458.778-1.272,1.222-2.173,1.214l-.962-.02c-.491-.016-.957.216-1.254.605l-1.194,1.567c-.091.12-.229.182-.369.182Z"/>
      </g>
    </g>
    <rect class="cls-1" x="215.038" y="192.108" width="18.056" height="32.234"/>
    <rect class="cls-7" x="214" y="109.43" width="164.677" height="88.672"/>
    <g>
      <rect class="cls-1" x="287.311" y="154.785" width="18.056" height="84.148" transform="translate(-52.404 267.201) rotate(-45)"/>
      <rect class="cls-1" x="254.264" y="187.831" width="84.148" height="18.056" transform="translate(-52.404 267.201) rotate(-45)"/>
    </g>
    <path class="cls-6" d="m296.338,247.847c-28.427,0-51.554-23.127-51.554-51.554s23.127-51.554,51.554-51.554,51.554,23.127,51.554,51.554-23.127,51.554-51.554,51.554Zm0-85.053c-18.471,0-33.499,15.027-33.499,33.499s15.027,33.499,33.499,33.499,33.499-15.028,33.499-33.499-15.027-33.499-33.499-33.499Z"/>
  </g>
  <g>
    <g>
      <g>
        <path class="cls-10" d="m748.627,91.578c-2.623,0-5.077-1.638-5.993-4.253-1.159-3.31.585-6.932,3.895-8.091,15.267-5.344,28.285-7.118,38.69-5.274,8.564,1.518,12.455,5.066,13.148,5.762l-8.997,8.962s.059.071.194.184c-.094-.079-9.78-7.819-38.838,2.353-.694.243-1.402.358-2.098.358Z"/>
        <g>
          <g>
            <path class="cls-10" d="m789.93,217.107c-14.835-34.936-.798-78.937-.193-80.793l12.074,3.935-6.037-1.967,6.039,1.963c-.133.41-13.15,41.389-.194,71.899l-11.689,4.964Z"/>
            <g>
              <ellipse class="cls-6" cx="793.664" cy="136.287" rx="13.19" ry="13.792"/>
              <path class="cls-6" d="m780.473,201.156h26.38c-3.119-12.894-3.458-47.842,0-64.869h-26.38c-5.58,15.33-4.901,49.261,0,64.869Z"/>
            </g>
          </g>
          <g>
            <path class="cls-1" d="m769.31,227.784v-1.739c0-4.777,3.872-8.649,8.649-8.649h0c4.777,0,8.649,3.872,8.649,8.649v1.739h-11.885s-1.675,0-1.675,0h-3.738Z"/>
            <path class="cls-1" d="m783.085,217.396v-.671c0-3.555,2.882-6.436,6.436-6.436,1.147,0,2.222.303,3.154.829h6.397c2.581,0,4.673,2.092,4.673,4.673v6.277s0,2.317,0,2.317v3.397h-25.787v-10.387h5.127Z"/>
            <rect class="cls-9" x="785.927" y="207.877" width="15.845" height="3.77" rx="1.885" ry="1.885" transform="translate(1587.698 419.524) rotate(180)"/>
            <polygon class="cls-1" points="803.745 227.783 803.745 225.031 777.053 225.031 777.053 227.745 803.745 227.783"/>
          </g>
        </g>
        <g class="cls-11">
          <g>
            <rect class="cls-6" x="759.181" y="46.696" width="94.71" height="7.753"/>
            <rect class="cls-3" x="759.181" y="54.449" width="94.71" height="7.753"/>
            <rect class="cls-6" x="759.181" y="61.888" width="94.71" height="7.753"/>
            <rect class="cls-3" x="759.181" y="69.641" width="94.71" height="7.753"/>
            <rect class="cls-6" x="759.181" y="77.079" width="94.71" height="7.753"/>
            <rect class="cls-3" x="759.181" y="84.832" width="94.71" height="7.753"/>
            <rect class="cls-6" x="759.181" y="92.27" width="94.71" height="7.753"/>
            <rect class="cls-3" x="759.181" y="100.023" width="94.71" height="7.753"/>
            <rect class="cls-6" x="759.181" y="107.462" width="94.71" height="7.753"/>
            <rect class="cls-3" x="759.181" y="115.214" width="94.71" height="7.753"/>
            <rect class="cls-6" x="759.181" y="122.653" width="94.71" height="7.753"/>
            <rect class="cls-3" x="759.181" y="130.406" width="94.71" height="7.753"/>
          </g>
        </g>
        <rect class="cls-2" x="789.061" y="13.756" width="36.984" height="55.646" rx="18.492" ry="18.492" transform="translate(1615.107 83.158) rotate(180)"/>
        <rect class="cls-10" x="789.061" y="13.756" width="36.984" height="55.646" rx="18.492" ry="18.492" transform="translate(1615.107 83.158) rotate(180)"/>
        <path class="cls-10" d="m787.987,89.09c-2.623,0-5.077-1.638-5.993-4.253-1.159-3.31.585-6.932,3.895-8.091,15.408-5.393,28.943-6.72,40.23-3.943,8.891,2.188,13.144,6.178,13.906,6.956l-9.07,8.888s.033.038.104.104c-.112-.104-2.808-2.55-9.024-3.855-5.984-1.257-16.385-1.612-31.951,3.837-.694.243-1.402.358-2.098.358Z"/>
        <circle class="cls-6" cx="809.759" cy="39.769" r="3.845"/>
        <circle class="cls-6" cx="794.603" cy="39.769" r="3.845"/>
        <g>
          <ellipse class="cls-1" cx="807.74" cy="26.79" rx="30.311" ry="5.354"/>
          <path class="cls-9" d="m804.162,1.531c-1.632,4.072-10.418,4.524-10.418,4.524l-6.316,16.189c-.276.348-.421.709-.421,1.078,0,2.957,9.282,5.353,20.731,5.353s20.731-2.397,20.731-5.353c-.418-22.847-22.677-25.863-24.308-21.791Z"/>
        </g>
        <polygon class="cls-10" points="790.774 34.613 800.105 39.703 815.487 35.462 806.326 33.426 790.774 34.613"/>
        <g>
          <path class="cls-5" d="m818.044,218.725c-16.773-26.237-15.79-47.615-12.012-60.928,4.164-14.672,12.563-23.023,12.918-23.371l8.888,9.071-4.444-4.535,4.469,4.511c-1.067,1.069-25.814,26.656.881,68.413l-10.7,6.84Z"/>
          <g>
            <ellipse class="cls-6" cx="823.592" cy="136.879" rx="13.792" ry="13.19" transform="translate(414.385 864.608) rotate(-70.087)"/>
            <rect class="cls-6" x="804.688" y="135.876" width="26.38" height="33.55" transform="translate(1534.863 574.74) rotate(-160.087)"/>
          </g>
          <g>
            <path class="cls-1" d="m803.918,234.284l-.664-1.607c-1.824-4.415.277-9.472,4.691-11.296h0c4.415-1.824,9.472.277,11.296,4.691l.664,1.607-10.985,4.538-1.548.639-3.455,1.427Z"/>
            <path class="cls-1" d="m812.685,219.423l-.256-.62c-1.357-3.285.206-7.049,3.491-8.406,1.06-.438,2.169-.568,3.232-.438l5.912-2.442c2.385-.985,5.117.15,6.103,2.535l2.397,5.802.885,2.141,1.297,3.14-23.834,9.846-3.966-9.6,4.739-1.958Z"/>
            <rect class="cls-9" x="811.795" y="206.373" width="15.845" height="3.77" rx="1.885" ry="1.885" transform="translate(1656.851 87.769) rotate(157.555)"/>
            <polygon class="cls-1" points="835.745 221.135 834.694 218.591 810.024 228.783 811.061 231.291 835.745 221.135"/>
          </g>
          <path class="cls-6" d="m824.566,172.915s-4.398,14.557,1.257,22.926l-21.489,9.727s-9.82-21.07-4.571-41.638"/>
        </g>
      </g>
      <path class="cls-9" d="m799.973,43.077s-6.108,4.298-5.655,8.973c0,0,4.976-4.901,6.711-3.468"/>
      <g>
        <path class="cls-1" d="m736.135,82.849c.709-.248,1.422-.452,2.135-.659l1.071-.289,1.074-.255c.358-.082.713-.207,1.069-.318.356-.107.719-.146,1.088-.11.739.084,1.488.268,2.272.839l.021.231c-.668.703-1.371,1.019-2.083,1.235-.357.102-.72.129-1.09.087-.37-.045-.741-.104-1.108-.12l-1.103-.057-1.106-.091c-.739-.075-1.477-.147-2.219-.263l-.021-.231Z"/>
        <path class="cls-1" d="m736.374,89.108c.616-.431,1.247-.819,1.878-1.212l.953-.568.966-.535c.323-.176.63-.392.943-.595.314-.2.652-.335,1.017-.4.735-.119,1.505-.144,2.414.194l.083.216c-.453.857-1.044,1.352-1.672,1.752-.316.194-.658.319-1.026.379-.368.057-.742.1-1.1.184l-1.077.243-1.089.211c-.732.127-1.462.258-2.208.346l-.083-.216Z"/>
        <path class="cls-1" d="m741.863,93.818c.433-.614.894-1.195,1.354-1.778l.703-.858.726-.832c.244-.275.46-.583.684-.88.227-.294.499-.537.82-.722.65-.362,1.367-.647,2.336-.638l.151.175c-.134.96-.522,1.626-.976,2.216-.231.29-.511.523-.836.705-.327.179-.663.347-.971.547l-.93.595-.953.569c-.645.368-1.287.739-1.958,1.077l-.151-.175Z"/>
      </g>
      <g>
        <path class="cls-1" d="m776.174,80.927c.709-.248,1.422-.452,2.135-.659l1.071-.289,1.074-.255c.358-.082.713-.207,1.069-.318.356-.107.718-.146,1.088-.11.739.084,1.488.268,2.272.839l.021.231c-.668.703-1.371,1.019-2.083,1.235-.357.102-.72.129-1.09.087-.37-.045-.741-.104-1.108-.12l-1.103-.057-1.106-.091c-.739-.075-1.477-.147-2.219-.263l-.021-.231Z"/>
        <path class="cls-1" d="m776.412,87.185c.616-.431,1.247-.819,1.878-1.212l.953-.568.966-.535c.323-.176.63-.392.943-.595.314-.199.652-.335,1.017-.4.735-.119,1.505-.144,2.414.194l.082.216c-.453.857-1.044,1.352-1.672,1.752-.316.194-.658.319-1.025.379-.368.057-.742.1-1.1.184l-1.077.244-1.089.211c-.732.127-1.462.258-2.208.346l-.083-.216Z"/>
        <path class="cls-1" d="m781.901,91.895c.433-.614.894-1.195,1.354-1.778l.703-.858.726-.832c.244-.275.46-.583.684-.88.227-.294.499-.537.82-.722.65-.362,1.367-.647,2.336-.638l.151.175c-.134.96-.522,1.626-.976,2.216-.231.29-.511.523-.836.705-.327.179-.663.347-.972.547l-.93.595-.953.569c-.645.368-1.287.739-1.958,1.077l-.151-.175Z"/>
      </g>
      <g>
        <path class="cls-9" d="m823.235,51.08c-.145,0-.288-.068-.378-.195l-.596-.842c-.637-.9-1.82-1.205-2.814-.726-.889.43-1.945.418-2.825-.032l-2.975-1.519c-.601-.307-1.301-.329-1.921-.06l-6.629,2.882c-.235.102-.507-.005-.609-.24-.102-.235.005-.507.24-.609l6.629-2.882c.874-.38,1.862-.349,2.711.084l2.975,1.519c.623.318,1.371.327,2.002.023,1.402-.678,3.072-.246,3.972,1.024l.596.842c.148.209.099.498-.11.645-.081.058-.175.085-.267.085Z"/>
        <path class="cls-9" d="m821.99,57.414c-.096,0-.193-.03-.276-.092l-3.232-2.404c-.612-.454-1.405-.569-2.12-.305l-3.898,1.436c-.871.321-1.835.245-2.646-.207l-2.996-1.672c-.422-.235-.899-.329-1.378-.267l-9.861,1.246c-.251.033-.485-.147-.517-.401s.148-.485.401-.517l9.861-1.246c.678-.085,1.35.045,1.946.378l2.996,1.672c.574.32,1.258.374,1.874.146l3.898-1.436c1.011-.372,2.129-.21,2.993.431l3.232,2.404c.205.153.248.442.095.648-.091.122-.23.187-.372.187Z"/>
        <path class="cls-9" d="m809.916,63.799c-.516,0-1.029-.127-1.498-.378l-1.395-.747c-.343-.184-.733-.275-1.119-.266l-8.218.208c-.258.007-.468-.196-.474-.451-.007-.256.195-.468.451-.474l8.218-.208c.546-.016,1.096.116,1.58.375l1.395.747c.601.322,1.305.354,1.934.091l3.26-1.369c.895-.376,1.898-.325,2.751.14l1.342.732c.224.123.307.404.185.628-.123.224-.403.308-.628.185l-1.342-.732c-.604-.329-1.315-.366-1.949-.099l-3.26,1.369c-.396.167-.814.249-1.231.249Z"/>
        <path class="cls-9" d="m815.883,41.58c-.098,0-.196-.031-.28-.095-.203-.155-.243-.445-.088-.649l1.194-1.567c.475-.623,1.228-.983,2.009-.97l.962.02c.579.013,1.07-.271,1.356-.757.286-.486.287-1.067.003-1.553-.274-.47-.783-.762-1.327-.762h-1.679c-.256,0-.463-.207-.463-.463s.207-.463.463-.463h1.679c.873,0,1.688.468,2.127,1.222.455.78.453,1.711-.004,2.489-.458.779-1.269,1.236-2.173,1.214l-.962-.02c-.479-.009-.957.216-1.254.605l-1.194,1.567c-.091.12-.229.182-.369.182Z"/>
      </g>
    </g>
    <rect class="cls-1" x="643.038" y="192.108" width="18.056" height="32.234"/>
    <rect class="cls-7" x="642" y="109.43" width="164.677" height="88.672"/>
    <g>
      <rect class="cls-1" x="715.311" y="154.785" width="18.056" height="84.148" transform="translate(72.954 569.843) rotate(-45)"/>
      <rect class="cls-1" x="682.264" y="187.831" width="84.148" height="18.056" transform="translate(72.954 569.843) rotate(-45)"/>
    </g>
    <path class="cls-6" d="m724.338,247.847c-28.427,0-51.554-23.127-51.554-51.554s23.127-51.554,51.554-51.554,51.554,23.127,51.554,51.554-23.127,51.554-51.554,51.554Zm0-85.053c-18.471,0-33.499,15.027-33.499,33.499s15.027,33.499,33.499,33.499,33.499-15.028,33.499-33.499-15.027-33.499-33.499-33.499Z"/>
  </g>
  <g>
    <g>
      <path class="cls-10" d="m579.867,90.554c-2.653,0-5.126-1.676-6.017-4.327-.085-.243-4.273-12.066-14.663-17.114-6.31-3.066-13.892-3.086-22.536-.061-3.31,1.159-6.932-.585-8.091-3.895-1.159-3.31.585-6.932,3.895-8.091,12.016-4.206,22.924-3.973,32.422.693,15.237,7.487,20.787,23.753,21.016,24.442,1.105,3.328-.696,6.922-4.024,8.027-.664.221-1.339.326-2.003.326Z"/>
      <g>
        <g>
          <path class="cls-10" d="m575.93,217.107c-14.835-34.936-.798-78.937-.193-80.793l12.074,3.935-6.037-1.967,6.039,1.963c-.133.41-13.15,41.389-.194,71.899l-11.689,4.964Z"/>
          <g>
            <ellipse class="cls-6" cx="579.664" cy="136.287" rx="13.19" ry="13.792"/>
            <path class="cls-6" d="m566.473,201.156h26.38c-3.119-12.894-3.458-47.842,0-64.869h-26.38c-5.58,15.33-4.901,49.261,0,64.869Z"/>
          </g>
        </g>
        <g>
          <path class="cls-1" d="m555.31,227.784v-1.739c0-4.777,3.872-8.649,8.649-8.649h0c4.777,0,8.649,3.872,8.649,8.649v1.739h-11.885s-1.675,0-1.675,0h-3.738Z"/>
          <path class="cls-1" d="m569.085,217.396v-.671c0-3.555,2.882-6.436,6.436-6.436,1.147,0,2.222.303,3.154.829h6.397c2.581,0,4.673,2.092,4.673,4.673v6.277s0,2.317,0,2.317v3.397h-25.787v-10.387h5.127Z"/>
          <rect class="cls-9" x="571.927" y="207.877" width="15.845" height="3.77" rx="1.885" ry="1.885" transform="translate(1159.698 419.524) rotate(180)"/>
          <polygon class="cls-1" points="589.745 227.783 589.745 225.031 563.053 225.031 563.053 227.745 589.745 227.783"/>
        </g>
      </g>
      <g class="cls-14">
        <g>
          <rect class="cls-6" x="545.181" y="46.696" width="94.71" height="7.753"/>
          <rect class="cls-3" x="545.181" y="54.449" width="94.71" height="7.753"/>
          <rect class="cls-6" x="545.181" y="61.888" width="94.71" height="7.753"/>
          <rect class="cls-3" x="545.181" y="69.641" width="94.71" height="7.753"/>
          <rect class="cls-6" x="545.181" y="77.079" width="94.71" height="7.753"/>
          <rect class="cls-3" x="545.181" y="84.832" width="94.71" height="7.753"/>
          <rect class="cls-6" x="545.181" y="92.27" width="94.71" height="7.753"/>
          <rect class="cls-3" x="545.181" y="100.023" width="94.71" height="7.753"/>
          <rect class="cls-6" x="545.181" y="107.462" width="94.71" height="7.753"/>
          <rect class="cls-3" x="545.181" y="115.214" width="94.71" height="7.753"/>
          <rect class="cls-6" x="545.181" y="122.653" width="94.71" height="7.753"/>
          <rect class="cls-3" x="545.181" y="130.406" width="94.71" height="7.753"/>
        </g>
      </g>
      <rect class="cls-2" x="575.061" y="13.756" width="36.984" height="55.646" rx="18.492" ry="18.492" transform="translate(1187.107 83.158) rotate(-180)"/>
      <rect class="cls-10" x="575.061" y="13.756" width="36.984" height="55.646" rx="18.492" ry="18.492" transform="translate(1187.107 83.158) rotate(-180)"/>
      <g>
        <path class="cls-9" d="m609.235,51.08c-.145,0-.288-.068-.378-.195l-.596-.842c-.637-.9-1.82-1.205-2.814-.726-.889.43-1.945.418-2.825-.032l-2.975-1.519c-.601-.307-1.301-.329-1.921-.06l-6.629,2.882c-.234.102-.507-.005-.609-.24-.102-.235.005-.507.24-.609l6.629-2.882c.874-.38,1.862-.349,2.711.084l2.975,1.519c.623.318,1.371.327,2.002.023,1.402-.678,3.072-.246,3.972,1.024l.596.842c.148.209.099.498-.11.645-.081.058-.175.085-.267.085Z"/>
        <path class="cls-9" d="m607.99,57.414c-.096,0-.193-.03-.276-.092l-3.232-2.404c-.612-.454-1.405-.569-2.12-.305l-3.898,1.436c-.871.321-1.835.245-2.646-.207l-2.996-1.672c-.422-.235-.9-.329-1.378-.267l-9.861,1.246c-.251.033-.485-.147-.517-.401s.148-.485.401-.517l9.861-1.246c.678-.085,1.35.045,1.946.378l2.996,1.672c.575.32,1.257.374,1.874.146l3.898-1.436c1.01-.372,2.129-.21,2.993.431l3.232,2.404c.205.153.248.442.095.648-.091.122-.23.187-.372.187Z"/>
        <path class="cls-9" d="m595.916,63.799c-.516,0-1.029-.127-1.498-.378l-1.395-.747c-.343-.184-.732-.275-1.119-.266l-8.218.208c-.259.007-.468-.196-.474-.451-.007-.256.195-.468.451-.474l8.218-.208c.55-.016,1.096.116,1.58.375l1.395.747c.601.322,1.305.354,1.934.091l3.26-1.369c.895-.376,1.898-.325,2.751.14l1.342.732c.224.123.307.404.185.628-.122.224-.403.308-.628.185l-1.342-.732c-.604-.329-1.315-.366-1.949-.099l-3.26,1.369c-.396.167-.814.249-1.231.249Z"/>
        <path class="cls-9" d="m601.883,41.58c-.098,0-.196-.031-.28-.095-.203-.155-.243-.445-.088-.649l1.194-1.567c.475-.623,1.222-.983,2.009-.97l.962.02c.581.013,1.07-.271,1.356-.757.286-.486.287-1.067.003-1.553-.274-.47-.783-.762-1.327-.762h-1.679c-.256,0-.463-.207-.463-.463s.207-.463.463-.463h1.679c.873,0,1.688.468,2.127,1.222.455.78.453,1.711-.004,2.489-.458.779-1.272,1.236-2.173,1.214l-.962-.02c-.477-.009-.957.216-1.254.605l-1.194,1.567c-.091.12-.229.182-.369.182Z"/>
      </g>
      <path class="cls-10" d="m621.493,90.554c-2.463,0-4.805-1.442-5.837-3.846-.066-.151-3.537-7.998-10.556-14.274-8.777-7.849-19.172-9.748-30.898-5.644-3.31,1.159-6.932-.585-8.091-3.895-1.159-3.31.585-6.932,3.895-8.091,20.676-7.238,35.303.629,43.934,8.503,8.976,8.189,13.216,17.995,13.392,18.408,1.374,3.226-.127,6.956-3.354,8.33-.812.346-1.655.51-2.485.51Z"/>
      <circle class="cls-6" cx="595.759" cy="39.769" r="3.845"/>
      <circle class="cls-6" cx="580.603" cy="39.769" r="3.845"/>
      <g>
        <ellipse class="cls-1" cx="593.74" cy="26.79" rx="30.311" ry="5.354"/>
        <path class="cls-9" d="m590.162,1.531c-1.632,4.072-10.418,4.524-10.418,4.524l-6.316,16.189c-.276.348-.421.709-.421,1.078,0,2.957,9.282,5.353,20.731,5.353s20.731-2.397,20.731-5.353c-.418-22.847-22.677-25.863-24.308-21.791Z"/>
      </g>
      <polygon class="cls-10" points="576.774 34.613 586.105 39.703 601.487 35.462 592.326 33.426 576.774 34.613"/>
    </g>
    <g>
      <path class="cls-2" d="m571.56,183.376h-12.699c0-21.871,5.816-37.212,17.287-45.596,15.019-10.978,33.598-5.24,34.382-4.99l-1.928,6.05-1.9,6.059c-.132-.041-13.383-4.009-23.137,3.19-7.966,5.88-12.005,17.752-12.005,35.287Z"/>
      <g>
        <ellipse class="cls-6" cx="610.483" cy="137.924" rx="13.792" ry="13.19" transform="translate(-15.233 124.059) rotate(-11.461)"/>
        <rect class="cls-6" x="580.853" y="124.483" width="26.38" height="33.55" transform="translate(573.643 751.523) rotate(-101.461)"/>
      </g>
      <g>
        <path class="cls-1" d="m541.776,202.787l-.126-1.734c-.346-4.764,3.236-8.906,8-9.252h0c4.764-.346,8.906,3.236,9.252,8l.126,1.734-11.854.86-1.67.121-3.728.27Z"/>
        <path class="cls-1" d="m554.764,191.429l-.049-.669c-.257-3.545,2.408-6.628,5.953-6.885,1.144-.083,2.238.142,3.206.599l6.38-.463c2.574-.187,4.812,1.748,4.998,4.322l.454,6.261.168,2.311.246,3.388-25.72,1.866-.752-10.359,5.114-.371Z"/>
        <rect class="cls-9" x="557.024" y="181.151" width="15.845" height="3.77" rx="1.885" ry="1.885" transform="translate(1141.658 324.708) rotate(175.85)"/>
        <polygon class="cls-1" points="576.121 200.294 575.922 197.549 549.3 199.48 549.496 202.188 576.121 200.294"/>
      </g>
    </g>
    <path class="cls-6" d="m574.981,131.664s-20.295,9.435-19.39,39.068h21.489l4.524-15.156-6.623-23.912Z"/>
    <g>
      <path class="cls-1" d="m522.317,60.664c.709-.248,1.422-.452,2.135-.659l1.071-.289,1.074-.255c.358-.082.713-.207,1.069-.318.356-.107.718-.146,1.088-.11.739.084,1.488.268,2.271.839l.021.231c-.668.703-1.371,1.019-2.083,1.235-.357.102-.72.129-1.09.087-.37-.045-.741-.104-1.108-.12l-1.103-.057-1.106-.091c-.739-.075-1.477-.147-2.219-.263l-.021-.231Z"/>
      <path class="cls-1" d="m522.556,66.923c.616-.431,1.247-.819,1.878-1.212l.953-.568.966-.535c.323-.176.63-.392.943-.595.314-.2.652-.335,1.017-.4.734-.119,1.505-.144,2.414.194l.083.216c-.453.857-1.044,1.352-1.672,1.752-.316.194-.658.319-1.025.379-.368.057-.742.1-1.1.184l-1.077.243-1.089.211c-.732.127-1.462.258-2.208.346l-.083-.216Z"/>
      <path class="cls-1" d="m528.045,71.633c.432-.614.894-1.195,1.354-1.778l.703-.858.726-.832c.244-.275.46-.583.684-.88.227-.294.499-.537.821-.722.65-.362,1.367-.647,2.336-.638l.151.175c-.134.96-.522,1.626-.976,2.216-.231.29-.511.523-.836.705-.327.178-.663.347-.972.547l-.93.595-.953.569c-.645.368-1.287.739-1.958,1.077l-.151-.175Z"/>
    </g>
    <g>
      <path class="cls-1" d="m560.477,59.324c.709-.248,1.422-.452,2.135-.659l1.071-.289,1.074-.255c.358-.082.713-.207,1.069-.318.356-.107.718-.146,1.088-.11.739.084,1.488.268,2.271.839l.021.231c-.668.703-1.371,1.019-2.083,1.235-.357.102-.72.129-1.09.087-.37-.045-.741-.104-1.108-.12l-1.103-.057-1.106-.091c-.739-.075-1.477-.147-2.219-.263l-.021-.231Z"/>
      <path class="cls-1" d="m560.715,65.583c.616-.431,1.247-.819,1.878-1.212l.953-.568.966-.535c.323-.176.63-.392.943-.595.314-.2.652-.335,1.017-.4.734-.119,1.505-.144,2.414.194l.083.216c-.453.857-1.044,1.352-1.672,1.752-.316.194-.658.319-1.025.379-.368.057-.742.1-1.1.184l-1.077.243-1.089.211c-.732.127-1.462.258-2.208.346l-.083-.216Z"/>
      <path class="cls-1" d="m566.205,70.293c.432-.614.894-1.195,1.354-1.778l.703-.858.726-.832c.244-.275.46-.583.684-.88.227-.294.499-.537.821-.722.65-.362,1.367-.647,2.336-.638l.151.175c-.134.96-.522,1.626-.976,2.216-.231.29-.511.523-.836.705-.327.178-.663.347-.972.547l-.93.595-.953.569c-.645.368-1.287.739-1.958,1.077l-.151-.175Z"/>
    </g>
    <rect class="cls-1" x="429.038" y="192.108" width="18.056" height="32.234"/>
    <rect class="cls-7" x="428" y="109.43" width="164.677" height="88.672"/>
    <g>
      <rect class="cls-1" x="501.311" y="154.784" width="18.056" height="84.148"/>
      <rect class="cls-1" x="468.264" y="187.831" width="84.148" height="18.056"/>
    </g>
    <path class="cls-6" d="m510.338,247.847c-28.427,0-51.554-23.127-51.554-51.554s23.127-51.554,51.554-51.554,51.554,23.127,51.554,51.554-23.127,51.554-51.554,51.554Zm0-85.053c-18.471,0-33.499,15.027-33.499,33.499s15.027,33.499,33.499,33.499,33.499-15.028,33.499-33.499-15.027-33.499-33.499-33.499Z"/>
  </g>
</svg>