<?xml version="1.0" encoding="UTF-8"?>
<svg id="Layer_1" data-name="Layer 1" xmlns="http://www.w3.org/2000/svg" width="458.058" height="226.198" xmlns:xlink="http://www.w3.org/1999/xlink" viewBox="0 0 458.058 226.198">
  <defs>
    <style>
      .cls-1 {
        fill: #e9a999;
      }

      .cls-1, .cls-2, .cls-3, .cls-4, .cls-5, .cls-6, .cls-7, .cls-8, .cls-9, .cls-10 {
        stroke-width: 0px;
      }

      .cls-11 {
        clip-path: url(#clippath-2);
      }

      .cls-2 {
        fill: #cc4f51;
      }

      .cls-3 {
        fill: #4c5347;
      }

      .cls-4 {
        fill: none;
      }

      .cls-5 {
        fill: #d39170;
      }

      .cls-12 {
        clip-path: url(#clippath-1);
      }

      .cls-6 {
        fill: #14242f;
      }

      .cls-13 {
        clip-path: url(#clippath);
      }

      .cls-7 {
        fill: #e7cdac;
      }

      .cls-14 {
        clip-path: url(#clippath-3);
      }

      .cls-8 {
        fill: #775943;
      }

      .cls-9 {
        fill: #9f5c51;
      }

      .cls-10 {
        fill: #d39173;
      }
    </style>
    <clipPath id="clippath">
      <path class="cls-4" d="m150.246,46.461h61.417v49.287c0,16.948-13.76,30.709-30.709,30.709h0c-16.948,0-30.709-13.76-30.709-30.709v-49.287h0Z" transform="translate(361.909 172.918) rotate(-180)"/>
    </clipPath>
    <clipPath id="clippath-1">
      <path class="cls-4" d="m35.75,46.461h61.417v49.287c0,16.948-13.76,30.709-30.709,30.709h0c-16.948,0-30.709-13.76-30.709-30.709v-49.287h0Z" transform="translate(132.917 172.918) rotate(-180)"/>
    </clipPath>
    <clipPath id="clippath-2">
      <path class="cls-4" d="m264.815,46.461h61.417v49.287c0,16.948-13.76,30.709-30.709,30.709h0c-16.948,0-30.709-13.76-30.709-30.709v-49.287h0Z" transform="translate(591.047 172.918) rotate(-180)"/>
    </clipPath>
    <clipPath id="clippath-3">
      <path class="cls-4" d="m379.311,46.461h61.417v49.287c0,16.948-13.76,30.709-30.709,30.709h0c-16.948,0-30.709-13.76-30.709-30.709v-49.287h0Z" transform="translate(820.04 172.918) rotate(-180)"/>
    </clipPath>
  </defs>
  <rect class="cls-8" x="126.992" y="206.292" width="102" height="19.906" rx="9.953" ry="9.953"/>
  <g>
    <g>
      <g>
        <path class="cls-10" d="m120.847,79.719c-2.623,0-5.077-1.638-5.993-4.253-1.159-3.31.585-6.932,3.895-8.091,15.267-5.344,28.284-7.118,38.69-5.274,8.564,1.518,12.455,5.066,13.148,5.762l-8.997,8.962s.059.071.194.184c-.094-.079-9.78-7.819-38.839,2.353-.694.243-1.402.358-2.098.358Z"/>
        <g>
          <g>
            <path class="cls-10" d="m162.15,205.248c-14.835-34.936-.798-78.937-.193-80.793l12.074,3.934-6.037-1.967,6.039,1.963c-.133.41-13.15,41.39-.194,71.9l-11.689,4.963Z"/>
            <g>
              <ellipse class="cls-6" cx="165.884" cy="124.428" rx="13.19" ry="13.792"/>
              <path class="cls-7" d="m152.694,189.297h26.38c-3.119-12.894-3.458-47.842,0-64.869h-26.38c-5.58,15.33-4.901,49.261,0,64.869Z"/>
            </g>
          </g>
          <g>
            <path class="cls-6" d="m141.53,215.925v-1.739c0-4.777,3.872-8.649,8.649-8.649h0c4.777,0,8.649,3.872,8.649,8.649v1.739h-11.885s-1.675,0-1.675,0h-3.738Z"/>
            <path class="cls-6" d="m155.306,205.537v-.671c0-3.555,2.882-6.436,6.436-6.436,1.147,0,2.222.303,3.154.829h6.397c2.581,0,4.673,2.092,4.673,4.673v6.277s0,2.317,0,2.317v3.397h-25.787v-10.387h5.127Z"/>
            <rect class="cls-9" x="158.147" y="196.018" width="15.845" height="3.77" rx="1.885" ry="1.885" transform="translate(332.138 395.806) rotate(180)"/>
            <polygon class="cls-6" points="175.966 215.924 175.966 213.172 149.274 213.172 149.274 215.886 175.966 215.924"/>
          </g>
        </g>
        <path class="cls-3" d="m150.246,46.461h61.417v49.287c0,16.948-13.76,30.709-30.709,30.709h0c-16.948,0-30.709-13.76-30.709-30.709v-49.287h0Z" transform="translate(361.909 172.918) rotate(-180)"/>
        <g class="cls-13">
          <g>
            <g>
              <circle class="cls-10" cx="143.383" cy="52.274" r="21.546"/>
              <circle class="cls-10" cx="212.601" cy="52.274" r="21.546"/>
            </g>
            <circle class="cls-10" cx="177.992" cy="52.274" r="9.298"/>
          </g>
        </g>
        <rect class="cls-1" x="161.281" y="1.897" width="36.984" height="55.646" rx="18.492" ry="18.492" transform="translate(359.547 59.44) rotate(-180)"/>
        <rect class="cls-7" x="161.281" y="1.897" width="36.984" height="55.646" rx="18.492" ry="18.492" transform="translate(359.547 59.44) rotate(-180)"/>
        <circle class="cls-6" cx="181.979" cy="27.91" r="3.845"/>
        <circle class="cls-6" cx="166.823" cy="27.91" r="3.845"/>
        <polygon class="cls-7" points="162.994 22.754 172.325 27.844 187.707 23.602 178.546 21.567 162.994 22.754"/>
        <path class="cls-10" d="m160.207,77.231c-2.623,0-5.077-1.638-5.993-4.253-1.159-3.31.585-6.932,3.895-8.091,15.408-5.392,28.943-6.719,40.23-3.943,8.892,2.187,13.144,6.178,13.906,6.956l-9.07,8.889s.033.038.105.104c-.112-.104-2.808-2.549-9.024-3.856-5.984-1.256-16.384-1.611-31.951,3.838-.694.243-1.402.358-2.098.358Z"/>
      </g>
      <g>
        <path class="cls-5" d="m190.264,206.866c-16.773-26.237-15.79-47.615-12.012-60.928,4.164-14.671,12.563-23.022,12.918-23.371l8.888,9.071-4.444-4.536,4.469,4.511c-1.067,1.069-25.814,26.656.881,68.413l-10.7,6.84Z"/>
        <g>
          <ellipse class="cls-7" cx="195.812" cy="125.02" rx="13.792" ry="13.19" transform="translate(11.574 266.543) rotate(-70.087)"/>
          <rect class="cls-7" x="176.908" y="124.017" width="26.38" height="33.55" transform="translate(320.878 337.912) rotate(-160.087)"/>
        </g>
        <g>
          <path class="cls-6" d="m176.138,222.424l-.664-1.607c-1.824-4.415.277-9.472,4.691-11.296h0c4.415-1.824,9.472.277,11.296,4.691l.664,1.607-10.985,4.538-1.548.639-3.455,1.427Z"/>
          <path class="cls-6" d="m184.905,207.564l-.256-.62c-1.357-3.285.206-7.049,3.491-8.406,1.06-.438,2.169-.568,3.232-.438l5.912-2.442c2.385-.985,5.117.15,6.103,2.535l2.397,5.802.885,2.141,1.297,3.14-23.834,9.846-3.966-9.6,4.739-1.958Z"/>
          <rect class="cls-9" x="184.016" y="194.514" width="15.845" height="3.77" rx="1.885" ry="1.885" transform="translate(444.321 304.637) rotate(157.555)"/>
          <polygon class="cls-6" points="207.965 209.276 206.914 206.732 182.244 216.923 183.281 219.432 207.965 209.276"/>
        </g>
        <path class="cls-7" d="m196.786,161.056s-4.398,14.557,1.257,22.926l-21.489,9.727s-9.82-21.07-4.571-41.638"/>
      </g>
    </g>
    <g>
      <circle class="cls-6" cx="165.077" cy="17.043" r="1.018"/>
      <circle class="cls-6" cx="167.078" cy="12.598" r="1.018"/>
      <circle class="cls-6" cx="170.587" cy="8.933" r="1.018"/>
    </g>
    <g>
      <circle class="cls-6" cx="183.965" cy="17.043" r="1.018"/>
      <circle class="cls-6" cx="181.965" cy="12.598" r="1.018"/>
      <circle class="cls-6" cx="178.456" cy="8.933" r="1.018"/>
    </g>
    <g>
      <circle class="cls-6" cx="194.371" cy="22.698" r="1.018"/>
      <circle class="cls-6" cx="192.37" cy="18.253" r="1.018"/>
      <circle class="cls-6" cx="188.861" cy="14.588" r="1.018"/>
    </g>
    <g>
      <circle class="cls-6" cx="183.965" cy="40.496" r="1.018"/>
      <circle class="cls-6" cx="181.965" cy="44.941" r="1.018"/>
      <circle class="cls-6" cx="178.456" cy="48.606" r="1.018"/>
    </g>
    <g>
      <circle class="cls-6" cx="193.692" cy="35.931" r="1.018"/>
      <circle class="cls-6" cx="191.692" cy="40.375" r="1.018"/>
      <circle class="cls-6" cx="188.183" cy="44.04" r="1.018"/>
    </g>
    <g>
      <circle class="cls-6" cx="165.077" cy="40.496" r="1.018"/>
      <circle class="cls-6" cx="167.078" cy="44.941" r="1.018"/>
      <circle class="cls-6" cx="170.587" cy="48.606" r="1.018"/>
    </g>
    <polygon class="cls-2" points="171.524 24.055 174.691 20.888 177.632 23.829 171.524 24.055"/>
    <path class="cls-2" d="m190.072,38.774c-.097,0-.195-.02-.289-.063l-6.673-3.054c-.349-.16-.502-.572-.342-.921.16-.349.572-.502.921-.343l6.673,3.054c.349.16.502.572.342.921-.117.255-.369.406-.632.406Z"/>
    <path class="cls-2" d="m159.875,38.774c-.263,0-.515-.151-.632-.406-.16-.349-.006-.761.342-.921l6.673-3.054c.349-.158.761-.006.921.343s.006.761-.342.921l-6.673,3.054c-.094.042-.192.063-.289.063Z"/>
    <rect class="cls-6" x="191.43" y="27.448" width="9.501" height="4.072"/>
    <rect class="cls-6" x="171.297" y="1.434" width="6.939" height="4.072" transform="translate(171.297 178.236) rotate(-90)"/>
  </g>
  <rect class="cls-8" x="12.496" y="206.292" width="102" height="19.906" rx="9.953" ry="9.953"/>
  <g>
    <g>
      <path class="cls-10" d="m16.787,110.17c-2.623,0-5.077-1.638-5.993-4.253-1.159-3.31.585-6.932,3.895-8.091,29.345-10.272,30.552-25.496,30.556-25.647.091-3.506,3.006-6.282,6.511-6.183,3.506.09,6.274,3.006,6.183,6.511-.018.692-.329,6.984-5.668,14.688-6.637,9.576-17.87,17.185-33.387,22.617-.694.243-1.402.358-2.098.358Z"/>
      <g>
        <g>
          <path class="cls-10" d="m47.654,205.248c-14.835-34.936-.797-78.937-.193-80.793l12.074,3.934-6.037-1.967,6.039,1.963c-.133.41-13.15,41.39-.194,71.9l-11.689,4.963Z"/>
          <g>
            <ellipse class="cls-6" cx="51.388" cy="124.428" rx="13.19" ry="13.792"/>
            <path class="cls-7" d="m38.198,189.297h26.38c-3.119-12.894-3.458-47.842,0-64.869h-26.38c-5.58,15.33-4.901,49.261,0,64.869Z"/>
          </g>
        </g>
        <g>
          <path class="cls-6" d="m27.034,215.925v-1.739c0-4.777,3.872-8.649,8.649-8.649h0c4.777,0,8.649,3.872,8.649,8.649v1.739h-11.885s-1.675,0-1.675,0h-3.738Z"/>
          <path class="cls-6" d="m40.81,205.537v-.671c0-3.555,2.882-6.436,6.436-6.436,1.147,0,2.222.303,3.154.829h6.397c2.581,0,4.673,2.092,4.673,4.673v6.277s0,2.317,0,2.317v3.397h-25.787v-10.387h5.127Z"/>
          <rect class="cls-9" x="43.651" y="196.018" width="15.845" height="3.77" rx="1.885" ry="1.885" transform="translate(103.146 395.806) rotate(-180)"/>
          <polygon class="cls-6" points="61.47 215.924 61.47 213.172 34.777 213.172 34.777 215.886 61.47 215.924"/>
        </g>
      </g>
      <path class="cls-3" d="m35.75,46.461h61.417v49.287c0,16.948-13.76,30.709-30.709,30.709h0c-16.948,0-30.709-13.76-30.709-30.709v-49.287h0Z" transform="translate(132.917 172.918) rotate(-180)"/>
      <g class="cls-12">
        <g>
          <g>
            <circle class="cls-10" cx="28.887" cy="52.274" r="21.546"/>
            <circle class="cls-10" cx="98.105" cy="52.274" r="21.546"/>
          </g>
          <circle class="cls-10" cx="63.496" cy="52.274" r="9.298"/>
        </g>
      </g>
      <rect class="cls-1" x="46.785" y="1.897" width="36.984" height="55.646" rx="18.492" ry="18.492" transform="translate(130.555 59.44) rotate(-180)"/>
      <rect class="cls-7" x="46.785" y="1.897" width="36.984" height="55.646" rx="18.492" ry="18.492" transform="translate(130.555 59.44) rotate(-180)"/>
      <path class="cls-10" d="m58.409,110.17c-2.623,0-5.077-1.638-5.993-4.253-1.159-3.31.585-6.932,3.895-8.091,29.345-10.272,30.552-25.496,30.556-25.647.091-3.506,3.006-6.282,6.511-6.183,3.506.09,6.274,3.006,6.183,6.511-.018.692-.329,6.984-5.668,14.688-6.637,9.576-17.87,17.185-33.387,22.617-.694.243-1.402.358-2.098.358Z"/>
      <circle class="cls-6" cx="67.483" cy="27.91" r="3.845"/>
      <circle class="cls-6" cx="52.327" cy="27.91" r="3.845"/>
      <g>
        <g>
          <path class="cls-10" d="m77.57,205.248c-14.835-34.936-.797-78.937-.193-80.793l12.074,3.934-6.037-1.967,6.039,1.963c-.133.41-13.15,41.39-.194,71.9l-11.689,4.963Z"/>
          <ellipse class="cls-7" cx="81.303" cy="124.428" rx="13.19" ry="13.792"/>
        </g>
        <g>
          <path class="cls-6" d="m56.949,215.925v-1.739c0-4.777,3.872-8.649,8.649-8.649h0c4.777,0,8.649,3.872,8.649,8.649v1.739h-11.885s-1.675,0-1.675,0h-3.738Z"/>
          <path class="cls-6" d="m70.725,205.537v-.671c0-3.555,2.882-6.436,6.436-6.436,1.147,0,2.222.303,3.154.829h6.397c2.581,0,4.673,2.092,4.673,4.673v6.277s0,2.317,0,2.317v3.397h-25.787v-10.387h5.127Z"/>
          <rect class="cls-9" x="73.566" y="196.018" width="15.845" height="3.77" rx="1.885" ry="1.885" transform="translate(162.978 395.806) rotate(180)"/>
          <polygon class="cls-6" points="91.385 215.924 91.385 213.172 64.693 213.172 64.693 215.886 91.385 215.924"/>
        </g>
      </g>
      <path class="cls-7" d="m68.396,189.297h26.38c-3.119-12.894-3.458-47.842,0-64.869h-26.38c-5.58,15.33-4.901,49.261,0,64.869Z"/>
      <polygon class="cls-7" points="48.498 22.754 57.829 27.844 73.211 23.602 64.05 21.567 48.498 22.754"/>
    </g>
    <g>
      <circle class="cls-6" cx="50.581" cy="17.043" r="1.018"/>
      <circle class="cls-6" cx="52.582" cy="12.598" r="1.018"/>
      <circle class="cls-6" cx="56.09" cy="8.933" r="1.018"/>
    </g>
    <g>
      <circle class="cls-6" cx="69.469" cy="17.043" r="1.018"/>
      <circle class="cls-6" cx="67.469" cy="12.598" r="1.018"/>
      <circle class="cls-6" cx="63.96" cy="8.933" r="1.018"/>
    </g>
    <g>
      <circle class="cls-6" cx="79.875" cy="22.698" r="1.018"/>
      <circle class="cls-6" cx="77.874" cy="18.253" r="1.018"/>
      <circle class="cls-6" cx="74.365" cy="14.588" r="1.018"/>
    </g>
    <g>
      <circle class="cls-6" cx="69.469" cy="40.496" r="1.018"/>
      <circle class="cls-6" cx="67.469" cy="44.941" r="1.018"/>
      <circle class="cls-6" cx="63.96" cy="48.606" r="1.018"/>
    </g>
    <g>
      <circle class="cls-6" cx="79.196" cy="35.931" r="1.018"/>
      <circle class="cls-6" cx="77.195" cy="40.375" r="1.018"/>
      <circle class="cls-6" cx="73.687" cy="44.04" r="1.018"/>
    </g>
    <g>
      <circle class="cls-6" cx="50.581" cy="40.496" r="1.018"/>
      <circle class="cls-6" cx="52.582" cy="44.941" r="1.018"/>
      <circle class="cls-6" cx="56.09" cy="48.606" r="1.018"/>
    </g>
    <polygon class="cls-2" points="57.028 24.055 60.195 20.888 63.135 23.829 57.028 24.055"/>
    <path class="cls-2" d="m75.576,38.774c-.097,0-.195-.02-.289-.063l-6.673-3.054c-.349-.16-.502-.572-.343-.921.16-.348.572-.502.92-.343l6.673,3.054c.349.16.502.572.343.921-.117.255-.369.406-.632.406Z"/>
    <path class="cls-2" d="m45.379,38.774c-.263,0-.515-.151-.632-.406-.16-.349-.006-.761.343-.921l6.673-3.054c.349-.158.761-.006.92.343.16.349.006.761-.343.921l-6.673,3.054c-.094.042-.192.063-.289.063Z"/>
    <rect class="cls-6" x="76.934" y="27.448" width="9.501" height="4.072"/>
    <rect class="cls-6" x="56.801" y="1.434" width="6.939" height="4.072" transform="translate(56.801 63.74) rotate(-90)"/>
  </g>
  <rect class="cls-8" x="241.561" y="206.292" width="102" height="19.906" rx="9.953" ry="9.953"/>
  <g>
    <path class="cls-10" d="m280.657,78.694c-2.653,0-5.126-1.676-6.017-4.327-.084-.242-4.272-12.066-14.662-17.114-6.31-3.066-13.893-3.087-22.536-.061-3.31,1.161-6.932-.585-8.091-3.895-1.159-3.31.585-6.932,3.895-8.091,12.016-4.206,22.925-3.973,32.422.694,15.237,7.487,20.787,23.753,21.016,24.442,1.105,3.328-.696,6.922-4.024,8.027-.664.221-1.339.326-2.003.326Z"/>
    <g>
      <g>
        <g>
          <g>
            <path class="cls-10" d="m276.72,205.248c-14.835-34.936-.798-78.937-.193-80.793l12.076,3.93c-.133.41-13.15,41.39-.194,71.9l-11.689,4.963Z"/>
            <g>
              <ellipse class="cls-6" cx="280.453" cy="124.428" rx="13.19" ry="13.792"/>
              <path class="cls-7" d="m267.263,189.297h26.38c-3.119-12.894-3.458-47.842,0-64.869h-26.38c-5.58,15.33-4.901,49.261,0,64.869Z"/>
            </g>
          </g>
          <g>
            <path class="cls-6" d="m256.099,215.925v-1.739c0-4.777,3.872-8.649,8.649-8.649h0c4.777,0,8.649,3.872,8.649,8.649v1.739h-11.885s-1.675,0-1.675,0h-3.738Z"/>
            <path class="cls-6" d="m269.875,205.537v-.671c0-3.555,2.882-6.436,6.436-6.436,1.147,0,2.222.303,3.154.829h6.397c2.581,0,4.673,2.092,4.673,4.673v6.277s0,2.317,0,2.317v3.397h-25.787v-10.387h5.127Z"/>
            <rect class="cls-9" x="272.716" y="196.018" width="15.845" height="3.77" rx="1.885" ry="1.885" transform="translate(561.277 395.806) rotate(180)"/>
            <polygon class="cls-6" points="290.535 215.924 290.535 213.172 263.843 213.172 263.843 215.886 290.535 215.924"/>
          </g>
        </g>
        <path class="cls-3" d="m264.815,46.461h61.417v49.287c0,16.948-13.76,30.709-30.709,30.709h0c-16.948,0-30.709-13.76-30.709-30.709v-49.287h0Z" transform="translate(591.047 172.918) rotate(-180)"/>
        <g class="cls-11">
          <g>
            <g>
              <circle class="cls-10" cx="257.952" cy="52.274" r="21.546"/>
              <circle class="cls-10" cx="327.171" cy="52.274" r="21.546"/>
            </g>
            <circle class="cls-10" cx="292.561" cy="52.274" r="9.298"/>
          </g>
        </g>
        <rect class="cls-1" x="275.851" y="1.897" width="36.984" height="55.646" rx="18.492" ry="18.492" transform="translate(588.685 59.44) rotate(-180)"/>
        <rect class="cls-7" x="275.851" y="1.897" width="36.984" height="55.646" rx="18.492" ry="18.492" transform="translate(588.685 59.44) rotate(-180)"/>
        <circle class="cls-6" cx="296.548" cy="27.91" r="3.845"/>
        <circle class="cls-6" cx="281.393" cy="27.91" r="3.845"/>
        <polygon class="cls-7" points="277.564 22.754 286.895 27.844 302.276 23.602 293.115 21.567 277.564 22.754"/>
      </g>
      <g>
        <path class="cls-1" d="m272.35,171.516h-12.699c0-21.871,5.816-37.212,17.287-45.596,15.019-10.977,33.598-5.24,34.382-4.99l-3.855,12.1,1.928-6.05-1.9,6.059c-.133-.041-13.383-4.009-23.137,3.19-7.966,5.88-12.005,17.752-12.005,35.287Z"/>
        <g>
          <ellipse class="cls-7" cx="311.272" cy="126.065" rx="13.792" ry="13.19" transform="translate(-18.843 64.366) rotate(-11.461)"/>
          <rect class="cls-7" x="281.642" y="112.624" width="26.38" height="33.55" transform="translate(226.6 444.064) rotate(-101.461)"/>
        </g>
        <g>
          <path class="cls-6" d="m242.565,190.927l-.126-1.734c-.346-4.764,3.236-8.906,8-9.252h0c4.764-.346,8.906,3.236,9.252,8l.126,1.734-11.854.86-1.67.121-3.728.27Z"/>
          <path class="cls-6" d="m255.553,179.57l-.049-.669c-.257-3.545,2.408-6.628,5.953-6.885,1.144-.083,2.238.142,3.206.599l6.38-.463c2.574-.187,4.812,1.748,4.998,4.322l.454,6.261.168,2.311.246,3.388-25.72,1.866-.752-10.359,5.114-.371Z"/>
          <rect class="cls-9" x="257.814" y="169.292" width="15.845" height="3.77" rx="1.885" ry="1.885" transform="translate(543.163 322.674) rotate(175.85)"/>
          <polygon class="cls-6" points="276.911 188.434 276.712 185.689 250.089 187.621 250.286 190.328 276.911 188.434"/>
        </g>
      </g>
      <path class="cls-7" d="m275.771,119.805s-20.295,9.435-19.39,39.068h21.489l4.524-15.156-6.623-23.912Z"/>
    </g>
    <g>
      <circle class="cls-6" cx="279.646" cy="17.043" r="1.018"/>
      <circle class="cls-6" cx="281.647" cy="12.598" r="1.018"/>
      <circle class="cls-6" cx="285.156" cy="8.933" r="1.018"/>
    </g>
    <g>
      <circle class="cls-6" cx="298.534" cy="17.043" r="1.018"/>
      <circle class="cls-6" cx="296.534" cy="12.598" r="1.018"/>
      <circle class="cls-6" cx="293.025" cy="8.933" r="1.018"/>
    </g>
    <g>
      <circle class="cls-6" cx="308.94" cy="22.698" r="1.018"/>
      <circle class="cls-6" cx="306.939" cy="18.253" r="1.018"/>
      <circle class="cls-6" cx="303.431" cy="14.588" r="1.018"/>
    </g>
    <g>
      <circle class="cls-6" cx="298.534" cy="40.496" r="1.018"/>
      <circle class="cls-6" cx="296.534" cy="44.941" r="1.018"/>
      <circle class="cls-6" cx="293.025" cy="48.606" r="1.018"/>
    </g>
    <g>
      <circle class="cls-6" cx="308.261" cy="35.931" r="1.018"/>
      <circle class="cls-6" cx="306.261" cy="40.375" r="1.018"/>
      <circle class="cls-6" cx="302.752" cy="44.04" r="1.018"/>
    </g>
    <g>
      <circle class="cls-6" cx="279.646" cy="40.496" r="1.018"/>
      <circle class="cls-6" cx="281.647" cy="44.941" r="1.018"/>
      <circle class="cls-6" cx="285.156" cy="48.606" r="1.018"/>
    </g>
    <polygon class="cls-2" points="286.093 24.055 289.26 20.888 292.201 23.829 286.093 24.055"/>
    <path class="cls-2" d="m304.642,38.774c-.097,0-.195-.02-.288-.063l-6.673-3.054c-.349-.16-.502-.572-.342-.921.159-.349.572-.503.92-.343l6.673,3.054c.349.16.502.572.342.921-.117.255-.368.406-.632.406Z"/>
    <path class="cls-2" d="m274.444,38.774c-.263,0-.515-.151-.632-.406-.16-.349-.006-.761.342-.921l6.673-3.054c.349-.159.761-.006.92.343.16.349.006.761-.342.921l-6.673,3.054c-.094.042-.192.063-.288.063Z"/>
    <rect class="cls-6" x="305.999" y="27.448" width="9.501" height="4.072"/>
    <rect class="cls-6" x="285.866" y="1.434" width="6.939" height="4.072" transform="translate(285.866 292.805) rotate(-90)"/>
    <path class="cls-10" d="m322.282,78.694c-2.464,0-4.807-1.443-5.839-3.849-.097-.22-3.569-8.024-10.555-14.271-8.778-7.85-19.173-9.749-30.898-5.644-3.309,1.157-6.932-.585-8.091-3.895-1.159-3.31.585-6.932,3.895-8.091,20.676-7.237,35.303.629,43.933,8.502,8.976,8.19,13.216,17.995,13.392,18.408,1.374,3.226-.127,6.956-3.354,8.33-.812.346-1.655.51-2.485.51Z"/>
  </g>
  <rect class="cls-8" x="356.058" y="206.292" width="102" height="19.906" rx="9.953" ry="9.953"/>
  <g>
    <g>
      <g>
        <path class="cls-10" d="m349.912,79.719c-2.623,0-5.077-1.638-5.993-4.253-1.159-3.31.585-6.932,3.895-8.091,15.267-5.344,28.284-7.118,38.69-5.274,8.564,1.518,12.455,5.066,13.148,5.762l-8.997,8.962s.059.071.194.184c-.094-.079-9.78-7.819-38.839,2.353-.694.243-1.402.358-2.098.358Z"/>
        <g>
          <g>
            <path class="cls-10" d="m391.216,205.248c-14.835-34.936-.798-78.937-.193-80.793l12.076,3.93c-.133.41-13.15,41.39-.194,71.9l-11.689,4.963Z"/>
            <g>
              <ellipse class="cls-6" cx="394.949" cy="124.428" rx="13.19" ry="13.792"/>
              <path class="cls-7" d="m381.759,189.297h26.38c-3.119-12.894-3.458-47.842,0-64.869h-26.38c-5.58,15.33-4.901,49.261,0,64.869Z"/>
            </g>
          </g>
          <g>
            <path class="cls-6" d="m370.595,215.925v-1.739c0-4.777,3.872-8.649,8.649-8.649h0c4.777,0,8.649,3.872,8.649,8.649v1.739h-11.885s-1.675,0-1.675,0h-3.738Z"/>
            <path class="cls-6" d="m384.371,205.537v-.671c0-3.555,2.882-6.436,6.436-6.436,1.147,0,2.222.303,3.154.829h6.397c2.581,0,4.673,2.092,4.673,4.673v6.277s0,2.317,0,2.317v3.397h-25.787v-10.387h5.127Z"/>
            <rect class="cls-9" x="387.212" y="196.018" width="15.845" height="3.77" rx="1.885" ry="1.885" transform="translate(790.269 395.806) rotate(180)"/>
            <polygon class="cls-6" points="405.031 215.924 405.031 213.172 378.339 213.172 378.339 215.886 405.031 215.924"/>
          </g>
        </g>
        <path class="cls-3" d="m379.311,46.461h61.417v49.287c0,16.948-13.76,30.709-30.709,30.709h0c-16.948,0-30.709-13.76-30.709-30.709v-49.287h0Z" transform="translate(820.04 172.918) rotate(-180)"/>
        <g class="cls-14">
          <g>
            <g>
              <circle class="cls-10" cx="372.448" cy="52.274" r="21.546"/>
              <circle class="cls-10" cx="441.667" cy="52.274" r="21.546"/>
            </g>
            <circle class="cls-10" cx="407.058" cy="52.274" r="9.298"/>
          </g>
        </g>
        <rect class="cls-1" x="390.347" y="1.897" width="36.984" height="55.646" rx="18.492" ry="18.492" transform="translate(817.678 59.44) rotate(-180)"/>
        <rect class="cls-7" x="390.347" y="1.897" width="36.984" height="55.646" rx="18.492" ry="18.492" transform="translate(817.678 59.44) rotate(-180)"/>
        <circle class="cls-6" cx="411.044" cy="27.91" r="3.845"/>
        <circle class="cls-6" cx="395.889" cy="27.91" r="3.845"/>
        <polygon class="cls-7" points="392.06 22.754 401.391 27.844 416.773 23.602 407.611 21.567 392.06 22.754"/>
        <path class="cls-10" d="m389.272,77.231c-2.623,0-5.077-1.638-5.993-4.253-1.159-3.31.585-6.932,3.895-8.091,15.408-5.393,28.943-6.72,40.229-3.943,8.891,2.187,13.144,6.178,13.906,6.956l-9.07,8.889s.033.038.104.104c-.112-.104-2.808-2.549-9.023-3.856-5.983-1.256-16.385-1.611-31.951,3.838-.694.243-1.402.358-2.098.358Z"/>
      </g>
      <g>
        <path class="cls-5" d="m419.33,206.866c-16.773-26.237-15.79-47.615-12.012-60.928,4.164-14.671,12.563-23.022,12.918-23.371l8.888,9.071-4.444-4.536,4.469,4.511c-1.067,1.069-25.814,26.656.881,68.413l-10.7,6.84Z"/>
        <g>
          <ellipse class="cls-7" cx="424.877" cy="125.02" rx="13.792" ry="13.19" transform="translate(162.621 481.913) rotate(-70.087)"/>
          <rect class="cls-7" x="405.974" y="124.017" width="26.38" height="33.55" transform="translate(765.313 415.931) rotate(-160.087)"/>
        </g>
        <g>
          <path class="cls-6" d="m405.204,222.424l-.664-1.607c-1.824-4.415.277-9.472,4.691-11.296h0c4.415-1.824,9.472.277,11.296,4.691l.664,1.607-10.985,4.538-1.548.639-3.455,1.427Z"/>
          <path class="cls-6" d="m413.97,207.564l-.256-.62c-1.357-3.285.206-7.049,3.491-8.406,1.06-.438,2.169-.568,3.232-.438l5.912-2.442c2.385-.985,5.117.15,6.103,2.535l2.397,5.802.885,2.141,1.297,3.14-23.834,9.846-3.966-9.6,4.739-1.958Z"/>
          <rect class="cls-9" x="413.081" y="194.514" width="15.845" height="3.77" rx="1.885" ry="1.885" transform="translate(885.099 217.179) rotate(157.555)"/>
          <polygon class="cls-6" points="437.031 209.276 435.98 206.732 411.31 216.923 412.346 219.432 437.031 209.276"/>
        </g>
        <path class="cls-7" d="m425.852,161.056s-4.398,14.557,1.257,22.926l-21.489,9.727s-9.82-21.07-4.571-41.638"/>
      </g>
    </g>
    <g>
      <circle class="cls-6" cx="394.143" cy="17.043" r="1.018"/>
      <circle class="cls-6" cx="396.143" cy="12.598" r="1.018"/>
      <circle class="cls-6" cx="399.652" cy="8.933" r="1.018"/>
    </g>
    <g>
      <circle class="cls-6" cx="413.031" cy="17.043" r="1.018"/>
      <circle class="cls-6" cx="411.03" cy="12.598" r="1.018"/>
      <circle class="cls-6" cx="407.521" cy="8.933" r="1.018"/>
    </g>
    <g>
      <circle class="cls-6" cx="423.436" cy="22.698" r="1.018"/>
      <circle class="cls-6" cx="421.436" cy="18.253" r="1.018"/>
      <circle class="cls-6" cx="417.927" cy="14.588" r="1.018"/>
    </g>
    <g>
      <circle class="cls-6" cx="413.031" cy="40.496" r="1.018"/>
      <circle class="cls-6" cx="411.03" cy="44.941" r="1.018"/>
      <circle class="cls-6" cx="407.521" cy="48.606" r="1.018"/>
    </g>
    <g>
      <circle class="cls-6" cx="422.757" cy="35.931" r="1.018"/>
      <circle class="cls-6" cx="420.757" cy="40.375" r="1.018"/>
      <circle class="cls-6" cx="417.248" cy="44.04" r="1.018"/>
    </g>
    <g>
      <circle class="cls-6" cx="394.143" cy="40.496" r="1.018"/>
      <circle class="cls-6" cx="396.143" cy="44.941" r="1.018"/>
      <circle class="cls-6" cx="399.652" cy="48.606" r="1.018"/>
    </g>
    <polygon class="cls-2" points="400.589 24.055 403.756 20.888 406.697 23.829 400.589 24.055"/>
    <path class="cls-2" d="m419.138,38.774c-.097,0-.195-.02-.288-.063l-6.673-3.054c-.349-.16-.502-.572-.342-.921.159-.349.572-.503.92-.343l6.673,3.054c.349.16.502.572.342.921-.117.255-.368.406-.632.406Z"/>
    <path class="cls-2" d="m388.94,38.774c-.263,0-.515-.151-.632-.406-.16-.349-.006-.761.342-.921l6.673-3.054c.349-.159.761-.006.92.343.16.349.006.761-.342.921l-6.673,3.054c-.094.042-.192.063-.288.063Z"/>
    <rect class="cls-6" x="420.495" y="27.448" width="9.501" height="4.072"/>
    <rect class="cls-6" x="400.362" y="1.434" width="6.939" height="4.072" transform="translate(400.362 407.301) rotate(-90)"/>
  </g>
</svg>